<?xml version="1.0" encoding="UTF-8" standalone="no"?>
<!-- Created with Inkscape (http://www.inkscape.org/) -->

<svg
   width="650"
   height="400"
   viewBox="0 0 171.97918 105.83333"
   version="1.1"
   id="svg5"
   inkscape:version="1.1.1 (3bf5ae0d25, 2021-09-20)"
   sodipodi:docname="aoc.svg"
   xmlns:inkscape="http://www.inkscape.org/namespaces/inkscape"
   xmlns:sodipodi="http://sodipodi.sourceforge.net/DTD/sodipodi-0.dtd"
   xmlns="http://www.w3.org/2000/svg"
   xmlns:svg="http://www.w3.org/2000/svg">
  <sodipodi:namedview
     id="namedview7"
     pagecolor="#ffffff"
     bordercolor="#666666"
     borderopacity="1.0"
     inkscape:pageshadow="2"
     inkscape:pageopacity="0.0"
     inkscape:pagecheckerboard="0"
     inkscape:document-units="mm"
     showgrid="false"
     fit-margin-top="0"
     fit-margin-left="0"
     fit-margin-right="0"
     fit-margin-bottom="0"
     units="px"
     inkscape:zoom="3.6233469"
     inkscape:cx="179.53015"
     inkscape:cy="277.50586"
     inkscape:window-width="1920"
     inkscape:window-height="991"
     inkscape:window-x="-9"
     inkscape:window-y="-9"
     inkscape:window-maximized="1"
     inkscape:current-layer="g17683" />
  <defs
     id="defs2">
    <filter
       inkscape:collect="always"
       style="color-interpolation-filters:sRGB"
       id="filter17433"
       x="-0.062458684"
       y="-0.26964745"
       width="1.1249174"
       height="1.5392949">
      <feGaussianBlur
         inkscape:collect="always"
         stdDeviation="0.56528657"
         id="feGaussianBlur17435" />
    </filter>
  </defs>
  <g
     inkscape:groupmode="layer"
     id="layer2"
     inkscape:label="Layer 2"
     style="display:inline"
     transform="translate(-91.569336,-113.32985)">
    <rect
       style="fill:#0f0f23;fill-opacity:1;stroke-width:3.97567;stroke-linecap:round;stroke-linejoin:round;stop-color:#000000"
       id="rect858"
       width="171.97917"
       height="105.83334"
       x="91.569336"
       y="113.32985" />
  </g>
  <g
     inkscape:label="Layer 1"
     inkscape:groupmode="layer"
     id="layer1"
     style="mix-blend-mode:normal;filter:url(#filter17433)"
     transform="translate(-91.569336,-113.32985)" />
  <g
     inkscape:groupmode="layer"
     id="layer3"
     inkscape:label="Layer 3"
     style="display:inline"
     transform="translate(-91.569336,-113.32985)">
    <g
       id="g17683"
       transform="matrix(2.7673526,0,0,2.7673526,-248.37253,-287.03965)">
      <g
         aria-label="0..50"
         id="text4693-3"
         style="font-size:10.5833px;line-height:1.25;fill:none;stroke:#dfdfdf;stroke-width:1.065;filter:url(#filter17433)">
        <path
           d="m 142.36035,175.37004 q -1.13241,0 -1.77799,-0.91016 -0.64558,-0.92075 -0.64558,-2.61408 0,-1.70391 0.64558,-2.59291 0.64558,-0.88899 1.77799,-0.88899 1.13242,0 1.778,0.88899 0.64558,0.889 0.64558,2.59291 0,1.69333 -0.64558,2.61408 -0.64558,0.91016 -1.778,0.91016 z m 0,-0.6985 q 0.70908,0 1.15358,-0.68791 0.45509,-0.68792 0.45509,-2.13783 0,-0.73024 -0.11642,-1.24883 -0.11642,-0.52916 -0.33867,-0.86783 -0.21166,-0.34925 -0.508,-0.508 -0.29633,-0.15874 -0.64558,-0.15874 -0.34925,0 -0.64558,0.15874 -0.29633,0.15875 -0.51858,0.508 -0.21167,0.33867 -0.32808,0.86783 -0.11642,0.51859 -0.11642,1.24883 0,1.44991 0.4445,2.13783 0.45508,0.68791 1.16416,0.68791 z m 0,-2.19074 q -0.26458,0 -0.46566,-0.17992 -0.1905,-0.19049 -0.1905,-0.52916 0,-0.32808 0.1905,-0.508 0.20108,-0.1905 0.46566,-0.1905 0.26459,0 0.45509,0.1905 0.20108,0.17992 0.20108,0.508 0,0.33867 -0.20108,0.52916 -0.1905,0.17992 -0.45509,0.17992 z"
           style="font-family:'Source Code Pro';-inkscape-font-specification:'Source Code Pro'"
           id="path864" />
        <path
           d="m 148.71032,175.37004 q -0.35983,0 -0.61383,-0.24341 -0.24342,-0.24342 -0.24342,-0.64559 0,-0.40216 0.24342,-0.64558 0.254,-0.254 0.61383,-0.254 0.35983,0 0.60325,0.254 0.25399,0.24342 0.25399,0.64558 0,0.40217 -0.25399,0.64559 -0.24342,0.24341 -0.60325,0.24341 z"
           style="font-family:'Source Code Pro';-inkscape-font-specification:'Source Code Pro'"
           id="path866" />
        <path
           d="m 155.06028,175.37004 q -0.35983,0 -0.61383,-0.24341 -0.24342,-0.24342 -0.24342,-0.64559 0,-0.40216 0.24342,-0.64558 0.254,-0.254 0.61383,-0.254 0.35983,0 0.60325,0.254 0.254,0.24342 0.254,0.64558 0,0.40217 -0.254,0.64559 -0.24342,0.24341 -0.60325,0.24341 z"
           style="font-family:'Source Code Pro';-inkscape-font-specification:'Source Code Pro'"
           id="path868" />
        <path
           d="m 161.26208,175.37004 q -0.45508,0 -0.8255,-0.0847 -0.35983,-0.0741 -0.65616,-0.20109 -0.28575,-0.127 -0.52917,-0.28575 -0.23283,-0.16933 -0.42333,-0.34925 l 0.43391,-0.57149 q 0.16934,0.14816 0.35984,0.29633 0.1905,0.13758 0.41275,0.24341 0.23283,0.10584 0.50799,0.16934 0.28575,0.0635 0.62442,0.0635 0.35983,0 0.66675,-0.10584 0.3175,-0.11641 0.55033,-0.31749 0.23283,-0.20109 0.35983,-0.48684 0.13758,-0.28575 0.13758,-0.63499 0,-0.6985 -0.45508,-1.09008 -0.4445,-0.39159 -1.2065,-0.39159 -0.42333,0 -0.71966,0.10584 -0.29633,0.10583 -0.65616,0.30691 l -0.46567,-0.29633 0.22225,-3.24907 h 3.82057 v 0.75141 h -3.04799 l -0.17992,2.00024 q 0.29634,-0.12699 0.5715,-0.20108 0.28575,-0.0741 0.67733,-0.0741 0.48684,0 0.91017,0.127 0.42333,0.127 0.73025,0.39158 0.31749,0.254 0.49741,0.65617 0.17992,0.39158 0.17992,0.94191 0,0.55033 -0.21167,0.97366 -0.20108,0.42333 -0.55033,0.71967 -0.34925,0.28575 -0.80433,0.4445 -0.4445,0.14816 -0.93133,0.14816 z"
           style="font-family:'Source Code Pro';-inkscape-font-specification:'Source Code Pro'"
           id="path870" />
        <path
           d="m 167.76021,175.37004 q -1.13241,0 -1.778,-0.91016 -0.64558,-0.92075 -0.64558,-2.61408 0,-1.70391 0.64558,-2.59291 0.64559,-0.88899 1.778,-0.88899 1.13241,0 1.77799,0.88899 0.64558,0.889 0.64558,2.59291 0,1.69333 -0.64558,2.61408 -0.64558,0.91016 -1.77799,0.91016 z m 0,-0.6985 q 0.70908,0 1.15358,-0.68791 0.45508,-0.68792 0.45508,-2.13783 0,-0.73024 -0.11642,-1.24883 -0.11641,-0.52916 -0.33866,-0.86783 -0.21167,-0.34925 -0.508,-0.508 -0.29633,-0.15874 -0.64558,-0.15874 -0.34925,0 -0.64558,0.15874 -0.29634,0.15875 -0.51858,0.508 -0.21167,0.33867 -0.32809,0.86783 -0.11641,0.51859 -0.11641,1.24883 0,1.44991 0.4445,2.13783 0.45508,0.68791 1.16416,0.68791 z m 0,-2.19074 q -0.26458,0 -0.46567,-0.17992 -0.1905,-0.19049 -0.1905,-0.52916 0,-0.32808 0.1905,-0.508 0.20109,-0.1905 0.46567,-0.1905 0.26458,0 0.45508,0.1905 0.20108,0.17992 0.20108,0.508 0,0.33867 -0.20108,0.52916 -0.1905,0.17992 -0.45508,0.17992 z"
           style="font-family:'Source Code Pro';-inkscape-font-specification:'Source Code Pro'"
           id="path872" />
      </g>
      <g
         aria-label="0..50"
         id="text4693"
         style="font-size:10.5833px;line-height:1.25;stroke-width:0.465">
        <path
           d="m 142.36035,175.37004 q -1.13241,0 -1.77799,-0.91016 -0.64558,-0.92075 -0.64558,-2.61408 0,-1.70391 0.64558,-2.59291 0.64558,-0.88899 1.77799,-0.88899 1.13242,0 1.778,0.88899 0.64558,0.889 0.64558,2.59291 0,1.69333 -0.64558,2.61408 -0.64558,0.91016 -1.778,0.91016 z m 0,-0.6985 q 0.70908,0 1.15358,-0.68791 0.45509,-0.68792 0.45509,-2.13783 0,-0.73024 -0.11642,-1.24883 -0.11642,-0.52916 -0.33867,-0.86783 -0.21166,-0.34925 -0.508,-0.508 -0.29633,-0.15874 -0.64558,-0.15874 -0.34925,0 -0.64558,0.15874 -0.29633,0.15875 -0.51858,0.508 -0.21167,0.33867 -0.32808,0.86783 -0.11642,0.51859 -0.11642,1.24883 0,1.44991 0.4445,2.13783 0.45508,0.68791 1.16416,0.68791 z m 0,-2.19074 q -0.26458,0 -0.46566,-0.17992 -0.1905,-0.19049 -0.1905,-0.52916 0,-0.32808 0.1905,-0.508 0.20108,-0.1905 0.46566,-0.1905 0.26459,0 0.45509,0.1905 0.20108,0.17992 0.20108,0.508 0,0.33867 -0.20108,0.52916 -0.1905,0.17992 -0.45509,0.17992 z"
           style="font-family:'Source Code Pro';-inkscape-font-specification:'Source Code Pro';fill:#ffffff"
           id="path835" />
        <path
           d="m 148.71032,175.37004 q -0.35983,0 -0.61383,-0.24341 -0.24342,-0.24342 -0.24342,-0.64559 0,-0.40216 0.24342,-0.64558 0.254,-0.254 0.61383,-0.254 0.35983,0 0.60325,0.254 0.25399,0.24342 0.25399,0.64558 0,0.40217 -0.25399,0.64559 -0.24342,0.24341 -0.60325,0.24341 z"
           style="font-family:'Source Code Pro';-inkscape-font-specification:'Source Code Pro';fill:#ffffff"
           id="path837" />
        <path
           d="m 155.06028,175.37004 q -0.35983,0 -0.61383,-0.24341 -0.24342,-0.24342 -0.24342,-0.64559 0,-0.40216 0.24342,-0.64558 0.254,-0.254 0.61383,-0.254 0.35983,0 0.60325,0.254 0.254,0.24342 0.254,0.64558 0,0.40217 -0.254,0.64559 -0.24342,0.24341 -0.60325,0.24341 z"
           style="font-family:'Source Code Pro';-inkscape-font-specification:'Source Code Pro';fill:#ffffff"
           id="path839" />
        <path
           d="m 161.26208,175.37004 q -0.45508,0 -0.8255,-0.0847 -0.35983,-0.0741 -0.65616,-0.20109 -0.28575,-0.127 -0.52917,-0.28575 -0.23283,-0.16933 -0.42333,-0.34925 l 0.43391,-0.57149 q 0.16934,0.14816 0.35984,0.29633 0.1905,0.13758 0.41275,0.24341 0.23283,0.10584 0.50799,0.16934 0.28575,0.0635 0.62442,0.0635 0.35983,0 0.66675,-0.10584 0.3175,-0.11641 0.55033,-0.31749 0.23283,-0.20109 0.35983,-0.48684 0.13758,-0.28575 0.13758,-0.63499 0,-0.6985 -0.45508,-1.09008 -0.4445,-0.39159 -1.2065,-0.39159 -0.42333,0 -0.71966,0.10584 -0.29633,0.10583 -0.65616,0.30691 l -0.46567,-0.29633 0.22225,-3.24907 h 3.82057 v 0.75141 h -3.04799 l -0.17992,2.00024 q 0.29634,-0.12699 0.5715,-0.20108 0.28575,-0.0741 0.67733,-0.0741 0.48684,0 0.91017,0.127 0.42333,0.127 0.73025,0.39158 0.31749,0.254 0.49741,0.65617 0.17992,0.39158 0.17992,0.94191 0,0.55033 -0.21167,0.97366 -0.20108,0.42333 -0.55033,0.71967 -0.34925,0.28575 -0.80433,0.4445 -0.4445,0.14816 -0.93133,0.14816 z"
           style="font-family:'Source Code Pro';-inkscape-font-specification:'Source Code Pro';fill:#ffffff"
           id="path841" />
        <path
           d="m 167.76021,175.37004 q -1.13241,0 -1.778,-0.91016 -0.64558,-0.92075 -0.64558,-2.61408 0,-1.70391 0.64558,-2.59291 0.64559,-0.88899 1.778,-0.88899 1.13241,0 1.77799,0.88899 0.64558,0.889 0.64558,2.59291 0,1.69333 -0.64558,2.61408 -0.64558,0.91016 -1.77799,0.91016 z m 0,-0.6985 q 0.70908,0 1.15358,-0.68791 0.45508,-0.68792 0.45508,-2.13783 0,-0.73024 -0.11642,-1.24883 -0.11641,-0.52916 -0.33866,-0.86783 -0.21167,-0.34925 -0.508,-0.508 -0.29633,-0.15874 -0.64558,-0.15874 -0.34925,0 -0.64558,0.15874 -0.29634,0.15875 -0.51858,0.508 -0.21167,0.33867 -0.32809,0.86783 -0.11641,0.51859 -0.11641,1.24883 0,1.44991 0.4445,2.13783 0.45508,0.68791 1.16416,0.68791 z m 0,-2.19074 q -0.26458,0 -0.46567,-0.17992 -0.1905,-0.19049 -0.1905,-0.52916 0,-0.32808 0.1905,-0.508 0.20109,-0.1905 0.46567,-0.1905 0.26458,0 0.45508,0.1905 0.20108,0.17992 0.20108,0.508 0,0.33867 -0.20108,0.52916 -0.1905,0.17992 -0.45508,0.17992 z"
           style="font-family:'Source Code Pro';-inkscape-font-specification:'Source Code Pro';fill:#ffffff"
           id="path843" />
      </g>
    </g>
    <text
       xml:space="preserve"
       style="font-style:normal;font-weight:normal;font-size:10.5833px;line-height:1.25;font-family:sans-serif;fill:#000000;fill-opacity:1;stroke:none;stroke-width:0.264583"
       x="119.60972"
       y="127.64212"
       id="text19293"><tspan
         sodipodi:role="line"
         id="tspan19291"
         style="stroke-width:0.264583"
         x="119.60972"
         y="127.64212" /></text>
    <text
       xml:space="preserve"
       style="font-size:50.5211px;line-height:1.25;font-family:'Source Code Pro';-inkscape-font-specification:'Source Code Pro';stroke-width:1.26303"
       x="162.40259"
       y="155.15059"
       id="text27127"><tspan
         sodipodi:role="line"
         id="tspan27125"
         style="fill:#fffa38;fill-opacity:1;stroke-width:1.26303"
         x="162.40259"
         y="155.15059">*</tspan></text>
  </g>
</svg>
