<?xml version="1.0" encoding="UTF-8" standalone="no"?>
<!-- Created with Inkscape (http://www.inkscape.org/) -->

<svg
   width="650"
   height="400"
   viewBox="0 0 171.97916 105.83334"
   version="1.1"
   id="svg5"
   inkscape:version="1.1.1 (3bf5ae0d25, 2021-09-20)"
   sodipodi:docname="session21.svg"
   xmlns:inkscape="http://www.inkscape.org/namespaces/inkscape"
   xmlns:sodipodi="http://sodipodi.sourceforge.net/DTD/sodipodi-0.dtd"
   xmlns="http://www.w3.org/2000/svg"
   xmlns:svg="http://www.w3.org/2000/svg">
  <sodipodi:namedview
     id="namedview7"
     pagecolor="#ffffff"
     bordercolor="#666666"
     borderopacity="1.0"
     inkscape:pageshadow="2"
     inkscape:pageopacity="0.0"
     inkscape:pagecheckerboard="0"
     inkscape:document-units="mm"
     showgrid="false"
     units="px"
     showguides="true"
     inkscape:zoom="1.0104048"
     inkscape:cx="270.68359"
     inkscape:cy="119.25913"
     inkscape:window-width="1920"
     inkscape:window-height="991"
     inkscape:window-x="-9"
     inkscape:window-y="-9"
     inkscape:window-maximized="1"
     inkscape:current-layer="g5086" />
  <defs
     id="defs2">
    <mask
       maskUnits="userSpaceOnUse"
       id="mask6921">
      <rect
         style="fill:#ffffff;fill-opacity:1;stroke-width:22.6743;stroke-linecap:round;stroke-linejoin:round;stop-color:#000000"
         id="rect6923"
         width="36.041"
         height="65.433662"
         x="274.13113"
         y="206.04883"
         ry="0"
         transform="scale(-1,1)" />
    </mask>
    <mask
       maskUnits="userSpaceOnUse"
       id="mask6921-3">
      <rect
         style="fill:#ffffff;fill-opacity:1;stroke-width:22.6743;stroke-linecap:round;stroke-linejoin:round;stop-color:#000000"
         id="rect6923-7"
         width="36.041"
         height="65.433662"
         x="274.13113"
         y="206.04883"
         ry="0"
         transform="scale(-1,1)" />
    </mask>
  </defs>
  <g
     inkscape:label="Layer 1"
     inkscape:groupmode="layer"
     id="layer1">
    <rect
       style="display:inline;fill:#a5a55e;fill-opacity:1;stroke-width:3.62712;stroke-linecap:round;stroke-linejoin:round;stop-color:#000000"
       id="rect7124"
       width="171.97917"
       height="105.83334"
       x="0"
       y="0"
       ry="0" />
    <g
       id="g5086"
       transform="translate(-0.51277328,1.71096)">
      <rect
         style="fill:#ee3737;fill-opacity:1;stroke-width:2;stroke-linejoin:round;stop-color:#000000"
         id="rect2363"
         width="55.121265"
         height="79.86692"
         x="21.017979"
         y="25.334633"
         ry="8.0958261"
         transform="rotate(-15.348426)" />
      <rect
         style="fill:#1e1e1e;fill-opacity:1;stroke-width:2;stroke-linejoin:round;stop-color:#000000"
         id="rect2363-4"
         width="55.121265"
         height="79.86692"
         x="91.467964"
         y="-10.710314"
         ry="8.0958261"
         transform="rotate(11.843304)" />
      <path
         id="path4104-3"
         style="fill:#1e1e1e;fill-opacity:1;stroke-width:3.02833;stroke-linecap:round;stroke-linejoin:round;stop-color:#000000"
         inkscape:transform-center-y="-0.60995781"
         d="m 61.665445,37.623849 c -0.234136,3.380949 -2.449749,6.685308 -4.592015,10.225818 -0.166646,0.275416 -0.318748,0.549408 -0.46074,0.821189 -1.40035,1.864602 -1.682903,3.893205 -1.121379,5.566585 0.407616,1.970384 1.908631,3.353829 4.477397,3.65077 0.339793,0.03929 0.679993,0.01156 1.016218,-0.06462 1.704239,-0.01491 2.837774,-0.658657 3.593366,-1.445533 l -1.076877,4.12214 8.268545,-2.270568 -3.030843,-2.993364 c 1.051464,0.290482 2.35476,0.264517 3.827468,-0.593049 0.327825,-0.106174 0.634737,-0.256226 0.906699,-0.463433 2.055085,-1.565808 2.639499,-3.519741 1.986391,-5.420409 -0.370604,-1.728318 -1.651386,-3.331041 -3.811785,-4.219563 -0.260072,-0.16058 -0.529811,-0.318001 -0.812785,-0.469175 -3.649976,-1.949923 -7.241695,-3.659548 -9.169655,-6.44677 z"
         inkscape:transform-center-x="-0.2349811" />
      <path
         id="path3975-8-1"
         style="display:inline;fill:#ee3737;fill-opacity:1;stroke-width:4.75558;stroke-linecap:round;stroke-linejoin:round;stop-color:#000000"
         inkscape:transform-center-x="-0.21257559"
         inkscape:transform-center-y="-1.5757699"
         d="m 113.23508,40.968529 -10.26291,10.354047 4.78813,13.769107 10.26167,-10.353519 z" />
    </g>
  </g>
</svg>
