<?xml version="1.0" encoding="UTF-8" standalone="no"?>
<!-- Created with Inkscape (http://www.inkscape.org/) -->

<svg
   width="650"
   height="400"
   viewBox="0 0 171.97916 105.83334"
   version="1.1"
   id="svg5"
   inkscape:version="1.1.1 (3bf5ae0d25, 2021-09-20)"
   sodipodi:docname="session21.svg"
   xmlns:inkscape="http://www.inkscape.org/namespaces/inkscape"
   xmlns:sodipodi="http://sodipodi.sourceforge.net/DTD/sodipodi-0.dtd"
   xmlns="http://www.w3.org/2000/svg"
   xmlns:svg="http://www.w3.org/2000/svg">
  <sodipodi:namedview
     id="namedview7"
     pagecolor="#ffffff"
     bordercolor="#666666"
     borderopacity="1.0"
     inkscape:pageshadow="2"
     inkscape:pageopacity="0.0"
     inkscape:pagecheckerboard="0"
     inkscape:document-units="mm"
     showgrid="false"
     units="px"
     showguides="true"
     inkscape:zoom="0.7144641"
     inkscape:cx="-21.694582"
     inkscape:cy="195.25124"
     inkscape:window-width="1920"
     inkscape:window-height="991"
     inkscape:window-x="-9"
     inkscape:window-y="-9"
     inkscape:window-maximized="1"
     inkscape:current-layer="layer1" />
  <defs
     id="defs2">
    <mask
       maskUnits="userSpaceOnUse"
       id="mask6921">
      <rect
         style="fill:#ffffff;fill-opacity:1;stroke-width:22.6743;stroke-linecap:round;stroke-linejoin:round;stop-color:#000000"
         id="rect6923"
         width="36.041"
         height="65.433662"
         x="274.13113"
         y="206.04883"
         ry="0"
         transform="scale(-1,1)" />
    </mask>
    <mask
       maskUnits="userSpaceOnUse"
       id="mask6921-3">
      <rect
         style="fill:#ffffff;fill-opacity:1;stroke-width:22.6743;stroke-linecap:round;stroke-linejoin:round;stop-color:#000000"
         id="rect6923-7"
         width="36.041"
         height="65.433662"
         x="274.13113"
         y="206.04883"
         ry="0"
         transform="scale(-1,1)" />
    </mask>
  </defs>
  <g
     inkscape:groupmode="layer"
     id="layer2"
     inkscape:label="Layer 2">
    <rect
       style="fill:#a5a55e;fill-opacity:1;stroke-width:3.62712;stroke-linecap:round;stroke-linejoin:round;stop-color:#000000"
       id="rect7124"
       width="171.97917"
       height="105.83334"
       x="0"
       y="-4.7908106e-08"
       ry="0" />
  </g>
  <g
     inkscape:label="Layer 1"
     inkscape:groupmode="layer"
     id="layer1">
    <g
       id="g6970"
       transform="matrix(1.2964012,0,0,1.2964012,36.247979,1.0899763)">
      <g
         id="g6958"
         transform="rotate(-7.7618861,70.36167,-91.587219)">
        <rect
           style="fill:#ee3737;fill-opacity:1;stroke-width:2.74029;stroke-linecap:round;stroke-linejoin:round;stop-color:#000000"
           id="rect1154-1"
           width="54.993137"
           height="39.805702"
           x="4.7216353"
           y="-26.568687"
           ry="6.8630509"
           rx="0"
           transform="rotate(90)" />
        <path
           id="path4104"
           style="fill:#1e1e1e;fill-opacity:1;stroke-width:2.11891;stroke-linecap:round;stroke-linejoin:round;stop-color:#000000"
           inkscape:transform-center-y="-0.86593745"
           d="m 6.665951,24.330571 c -0.784406,2.237806 -2.891558,4.056803 -4.992976,6.048726 -0.16347,0.154953 -0.316862,0.311637 -0.463021,0.468705 -1.29032,0.998621 -1.856827,2.315004 -1.788005,3.548105 -0.09005,1.404977 0.666384,2.616525 2.34456,3.292822 0.221985,0.08946 0.456659,0.133794 0.697632,0.144692 1.152643,0.305705 2.036735,0.08138 2.692342,-0.309541 L 3.666135,40.105836 H 9.665768 L 8.17542,37.524598 c 0.65562,0.390811 1.539788,0.61477 2.692342,0.309023 0.240862,-0.01092 0.475744,-0.05527 0.697632,-0.144692 1.676721,-0.675709 2.433064,-1.885781 2.34456,-3.289205 0.07017,-1.234794 -0.497037,-2.553487 -1.790072,-3.553272 -0.145723,-0.156532 -0.298553,-0.312726 -0.46147,-0.467155 -2.101419,-1.991923 -4.208054,-3.81092 -4.992461,-6.048726 z" />
      </g>
      <g
         id="g6962"
         transform="rotate(5.1024457,-79.253366,-20.497932)">
        <rect
           style="fill:#1e1e1e;fill-opacity:1;stroke-width:2.74029;stroke-linecap:round;stroke-linejoin:round;stop-color:#000000"
           id="rect1154"
           width="54.993137"
           height="39.805702"
           x="1.2035551"
           y="-78.476883"
           ry="6.8630509"
           rx="0"
           transform="rotate(90)" />
        <path
           id="path3975"
           style="fill:#ee3737;fill-opacity:1;stroke-width:3.12457;stroke-linecap:round;stroke-linejoin:round;stop-color:#000000"
           inkscape:transform-center-x="1.6847997e-06"
           inkscape:transform-center-y="-1.3544329"
           d="m 58.574386,20.573746 -5.070184,8.126635 5.070184,8.126119 5.069479,-8.126119 z" />
      </g>
    </g>
  </g>
</svg>
