<?xml version="1.0" encoding="UTF-8" standalone="no"?>
<svg width="2977.23px" height="4208.46px" viewBox="0 0 2977.23 4208.46"
 xmlns="http://www.w3.org/2000/svg" xmlns:xlink="http://www.w3.org/1999/xlink" version="1.2" baseProfile="tiny">
<title>He_Is,_They_Are (2)</title>
<desc>Generated by MuseScore 3.6.2</desc>
<polyline class="StaffLines" fill="none" stroke="#000000" stroke-width="2.75" stroke-linejoin="bevel" points="141.732,245.877 2835.5,245.877"/>
<polyline class="StaffLines" fill="none" stroke="#000000" stroke-width="2.75" stroke-linejoin="bevel" points="141.732,270.879 2835.5,270.879"/>
<polyline class="StaffLines" fill="none" stroke="#000000" stroke-width="2.75" stroke-linejoin="bevel" points="141.732,295.88 2835.5,295.88"/>
<polyline class="StaffLines" fill="none" stroke="#000000" stroke-width="2.75" stroke-linejoin="bevel" points="141.732,320.882 2835.5,320.882"/>
<polyline class="StaffLines" fill="none" stroke="#000000" stroke-width="2.75" stroke-linejoin="bevel" points="141.732,345.883 2835.5,345.883"/>
<polyline class="StaffLines" fill="none" stroke="#000000" stroke-width="2.75" stroke-linejoin="bevel" points="141.732,720.907 2835.5,720.907"/>
<polyline class="StaffLines" fill="none" stroke="#000000" stroke-width="2.75" stroke-linejoin="bevel" points="141.732,745.909 2835.5,745.909"/>
<polyline class="StaffLines" fill="none" stroke="#000000" stroke-width="2.75" stroke-linejoin="bevel" points="141.732,770.91 2835.5,770.91"/>
<polyline class="StaffLines" fill="none" stroke="#000000" stroke-width="2.75" stroke-linejoin="bevel" points="141.732,795.912 2835.5,795.912"/>
<polyline class="StaffLines" fill="none" stroke="#000000" stroke-width="2.75" stroke-linejoin="bevel" points="141.732,820.913 2835.5,820.913"/>
<path class="MeasureNumber" d="M125.545,182.483 C126.232,178.952 127.029,176.765 128.545,174.077 C130.357,170.921 132.514,169.312 134.904,169.312 C136.154,169.312 136.904,169.796 136.904,170.562 C136.904,170.843 136.826,170.999 136.545,171.515 C136.185,172.202 136.029,172.671 136.029,173.28 C136.029,174.562 136.982,175.437 138.342,175.437 C139.982,175.437 141.107,174.233 141.107,172.437 C141.107,169.718 138.545,167.718 134.982,167.718 C131.232,167.718 127.873,169.718 125.154,173.562 C122.357,177.515 120.67,182.593 120.67,187.03 C120.67,192.921 123.592,196.468 128.467,196.468 C131.467,196.468 134.154,195.28 136.076,193.155 C137.826,191.155 138.904,188.28 138.904,185.64 C138.904,181.562 136.154,178.718 132.154,178.718 C129.357,178.718 127.185,179.921 125.545,182.483 M130.873,181.03 C133.357,181.03 134.717,182.749 134.717,185.874 C134.717,190.952 132.029,194.827 128.467,194.827 C125.904,194.827 124.389,192.952 124.389,189.749 C124.389,184.749 127.154,181.03 130.873,181.03 M155.264,167.718 C152.623,167.718 150.154,168.921 147.951,171.233 C144.639,174.843 142.389,180.999 142.389,186.593 C142.389,192.39 145.279,196.468 149.357,196.468 C156.185,196.468 162.31,187.593 162.31,177.671 C162.31,171.718 159.467,167.718 155.264,167.718 M155.232,169.312 C157.31,169.312 158.435,171.155 158.435,174.593 C158.435,178.515 157.435,183.593 155.795,187.718 C153.873,192.718 151.951,194.874 149.545,194.874 C147.389,194.874 146.185,192.952 146.185,189.562 C146.185,184.358 148.029,177.39 150.592,172.765 C151.826,170.515 153.435,169.312 155.232,169.312"/>
<path class="MeasureNumber" d="M125.545,657.513 C126.232,653.982 127.029,651.795 128.545,649.107 C130.357,645.951 132.514,644.341 134.904,644.341 C136.154,644.341 136.904,644.826 136.904,645.591 C136.904,645.873 136.826,646.029 136.545,646.545 C136.185,647.232 136.029,647.701 136.029,648.31 C136.029,649.591 136.982,650.466 138.342,650.466 C139.982,650.466 141.107,649.263 141.107,647.466 C141.107,644.748 138.545,642.748 134.982,642.748 C131.232,642.748 127.873,644.748 125.154,648.591 C122.357,652.545 120.67,657.623 120.67,662.06 C120.67,667.951 123.592,671.498 128.467,671.498 C131.467,671.498 134.154,670.31 136.076,668.185 C137.826,666.185 138.904,663.31 138.904,660.67 C138.904,656.591 136.154,653.748 132.154,653.748 C129.357,653.748 127.185,654.951 125.545,657.513 M130.873,656.06 C133.357,656.06 134.717,657.779 134.717,660.904 C134.717,665.982 132.029,669.857 128.467,669.857 C125.904,669.857 124.389,667.982 124.389,664.779 C124.389,659.779 127.154,656.06 130.873,656.06 M147.545,657.513 C148.232,653.982 149.029,651.795 150.545,649.107 C152.357,645.951 154.514,644.341 156.904,644.341 C158.154,644.341 158.904,644.826 158.904,645.591 C158.904,645.873 158.826,646.029 158.545,646.545 C158.185,647.232 158.029,647.701 158.029,648.31 C158.029,649.591 158.982,650.466 160.342,650.466 C161.982,650.466 163.107,649.263 163.107,647.466 C163.107,644.748 160.545,642.748 156.982,642.748 C153.232,642.748 149.873,644.748 147.154,648.591 C144.357,652.545 142.67,657.623 142.67,662.06 C142.67,667.951 145.592,671.498 150.467,671.498 C153.467,671.498 156.154,670.31 158.076,668.185 C159.826,666.185 160.904,663.31 160.904,660.67 C160.904,656.591 158.154,653.748 154.154,653.748 C151.357,653.748 149.185,654.951 147.545,657.513 M152.873,656.06 C155.357,656.06 156.717,657.779 156.717,660.904 C156.717,665.982 154.029,669.857 150.467,669.857 C147.904,669.857 146.389,667.982 146.389,664.779 C146.389,659.779 149.154,656.06 152.873,656.06"/>
<path class="TieSegment" stroke="#000000" stroke-width="1.75" stroke-linecap="round" stroke-linejoin="round" fill-rule="evenodd" d="M1009.18,270.38 C1025.63,254.377 1074.98,254.377 1091.43,270.38 C1074.98,261.378 1025.63,261.378 1009.18,270.38"/>
<path class="TieSegment" stroke="#000000" stroke-width="1.75" stroke-linecap="round" stroke-linejoin="round" fill-rule="evenodd" d="M1058.17,714.657 C1065.17,701.156 1086.18,701.156 1093.18,714.657 C1086.18,708.156 1065.17,708.156 1058.17,714.657"/>
<path class="TieSegment" stroke="#000000" stroke-width="1.75" stroke-linecap="round" stroke-linejoin="round" fill-rule="evenodd" d="M1316.6,718.532 C1329.48,705.031 1368.11,705.031 1380.99,718.532 C1368.11,712.032 1329.48,712.032 1316.6,718.532"/>
<path class="TieSegment" stroke="#000000" stroke-width="1.75" stroke-linecap="round" stroke-linejoin="round" fill-rule="evenodd" d="M1622.41,702.156 C1638.86,686.154 1688.21,686.154 1704.66,702.156 C1688.21,693.154 1638.86,693.154 1622.41,702.156"/>
<path class="TieSegment" stroke="#000000" stroke-width="1.75" stroke-linecap="round" stroke-linejoin="round" fill-rule="evenodd" d="M1714.4,702.156 C1726.45,688.655 1762.58,688.655 1774.63,702.156 C1762.58,695.655 1726.45,695.655 1714.4,702.156"/>
<path class="TieSegment" stroke="#000000" stroke-width="1.75" stroke-linecap="round" stroke-linejoin="round" fill-rule="evenodd" d="M2419.98,743.534 C2426.98,730.033 2447.98,730.033 2454.98,743.534 C2447.98,737.033 2426.98,737.033 2419.98,743.534"/>
<path class="TieSegment" stroke="#000000" stroke-width="1.75" stroke-linecap="round" stroke-linejoin="round" fill-rule="evenodd" d="M2571.04,764.66 C2587.49,748.658 2636.84,748.658 2653.29,764.66 C2636.84,755.658 2587.49,755.658 2571.04,764.66"/>
<polyline class="BarLine" stroke="#000000" stroke-width="4.50" stroke-linejoin="bevel" points="709.561,244.502 709.561,347.259"/>
<polyline class="BarLine" stroke="#000000" stroke-width="4.50" stroke-linejoin="bevel" points="1047.8,244.502 1047.8,347.259"/>
<polyline class="BarLine" stroke="#000000" stroke-width="4.50" stroke-linejoin="bevel" points="1482.93,244.502 1482.93,347.259"/>
<polyline class="BarLine" stroke="#000000" stroke-width="4.50" stroke-linejoin="bevel" points="1998.53,244.502 1998.53,347.259"/>
<polyline class="BarLine" stroke="#000000" stroke-width="4.50" stroke-linejoin="bevel" points="2495.01,244.502 2495.01,347.259"/>
<polyline class="BarLine" stroke="#000000" stroke-width="4.50" stroke-linejoin="bevel" points="2833.25,244.502 2833.25,347.259"/>
<polyline class="BarLine" stroke="#000000" stroke-width="4.50" stroke-linejoin="bevel" points="642.591,719.532 642.591,822.288"/>
<polyline class="BarLine" stroke="#000000" stroke-width="4.50" stroke-linejoin="bevel" points="962.306,719.532 962.306,822.288"/>
<polyline class="BarLine" stroke="#000000" stroke-width="4.50" stroke-linejoin="bevel" points="1263.22,719.532 1263.22,822.288"/>
<polyline class="BarLine" stroke="#000000" stroke-width="4.50" stroke-linejoin="bevel" points="1661.03,719.532 1661.03,822.288"/>
<polyline class="BarLine" stroke="#000000" stroke-width="4.50" stroke-linejoin="bevel" points="2010.39,719.532 2010.39,822.288"/>
<polyline class="BarLine" stroke="#000000" stroke-width="4.50" stroke-linejoin="bevel" points="2260.3,719.532 2260.3,822.288"/>
<polyline class="BarLine" stroke="#000000" stroke-width="4.50" stroke-linejoin="bevel" points="2609.66,719.532 2609.66,822.288"/>
<polyline class="BarLine" stroke="#000000" stroke-width="4.50" stroke-linejoin="bevel" points="2811.12,719.532 2811.12,822.288"/>
<polyline class="BarLine" stroke="#000000" stroke-width="13.75" stroke-linejoin="bevel" points="2828.62,719.532 2828.62,822.288"/>
<path class="Accidental" d="M1814.35,265.083 C1814.16,264.88 1813.85,264.786 1813.55,264.786 C1813.46,264.786 1813.25,264.88 1813.16,264.88 L1800.55,268.38 L1800.55,250.88 L1797.75,250.88 L1797.75,300.38 C1797.75,301.176 1798.35,301.676 1799.16,301.676 L1799.55,301.676 L1812.16,298.176 L1812.16,315.676 L1814.85,315.676 L1814.85,266.176 C1814.85,265.786 1814.66,265.286 1814.35,265.083 M1812.16,289.88 L1800.55,293.083 L1800.55,276.676 L1812.16,273.38 L1812.16,289.88 "/>
<path class="Accidental" d="M2037.08,310.288 C2037.69,310.179 2038.19,309.476 2038.19,308.882 L2038.19,302.976 C2038.19,302.179 2037.58,301.585 2036.78,301.585 L2036.58,301.585 L2033.28,302.288 L2033.28,287.382 L2030.49,287.382 L2030.49,302.882 L2021.58,304.679 L2021.58,290.585 L2018.78,290.585 L2018.78,305.288 L2014.88,306.085 C2014.28,306.179 2013.78,306.882 2013.78,307.476 L2013.78,307.679 L2013.78,313.476 L2013.78,313.288 C2013.78,314.085 2014.38,314.679 2015.19,314.679 L2015.49,314.679 L2018.78,313.976 L2018.78,330.476 L2014.88,331.288 C2014.28,331.382 2013.78,332.085 2013.78,332.679 L2013.78,338.476 C2013.78,339.288 2014.38,339.882 2015.19,339.882 L2015.49,339.882 L2018.78,339.179 L2018.78,354.085 L2021.58,354.085 L2021.58,338.585 L2030.49,336.788 L2030.49,350.882 L2033.28,350.882 L2033.28,336.179 L2037.08,335.476 C2037.69,335.382 2038.19,334.679 2038.19,334.085 L2038.19,328.179 C2038.19,327.382 2037.58,326.788 2036.78,326.788 L2036.58,326.788 L2033.28,327.476 L2033.28,310.976 L2037.08,310.288 M2021.58,329.976 L2021.58,313.382 L2030.49,311.585 L2030.49,328.085 L2021.58,329.976 "/>
<polyline class="Stem" stroke="#000000" stroke-width="2.75" stroke-linejoin="bevel" points="356.504,286.74 356.504,364.635"/>
<polyline class="Stem" stroke="#000000" stroke-width="2.75" stroke-linejoin="bevel" points="405.418,274.239 405.418,368.802"/>
<polyline class="Stem" stroke="#000000" stroke-width="2.75" stroke-linejoin="bevel" points="454.332,286.74 454.332,372.969"/>
<polyline class="Stem" stroke="#000000" stroke-width="2.75" stroke-linejoin="bevel" points="503.246,311.741 503.246,377.135"/>
<polyline class="Stem" stroke="#000000" stroke-width="2.75" stroke-linejoin="bevel" points="552.161,299.241 552.161,374.01"/>
<polyline class="Stem" stroke="#000000" stroke-width="2.75" stroke-linejoin="bevel" points="660.168,305.181 660.168,227.126"/>
<polyline class="Stem" stroke="#000000" stroke-width="2.75" stroke-linejoin="bevel" points="772.932,330.182 772.932,245.877"/>
<polyline class="Stem" stroke="#000000" stroke-width="2.75" stroke-linejoin="bevel" points="840.848,305.181 840.848,227.126"/>
<polyline class="Stem" stroke="#000000" stroke-width="2.75" stroke-linejoin="bevel" points="908.764,305.181 908.764,227.126"/>
<polyline class="Stem" stroke="#000000" stroke-width="2.75" stroke-linejoin="bevel" points="946.936,311.741 946.936,377.135"/>
<polyline class="Stem" stroke="#000000" stroke-width="2.75" stroke-linejoin="bevel" points="989.431,299.241 989.431,370.885"/>
<polyline class="Stem" stroke="#000000" stroke-width="2.75" stroke-linejoin="bevel" points="1081.43,299.241 1081.43,370.885"/>
<polyline class="Stem" stroke="#000000" stroke-width="2.75" stroke-linejoin="bevel" points="1133.42,299.241 1133.42,368.802"/>
<polyline class="Stem" stroke="#000000" stroke-width="2.75" stroke-linejoin="bevel" points="1185.41,286.74 1185.41,366.718"/>
<polyline class="Stem" stroke="#000000" stroke-width="2.75" stroke-linejoin="bevel" points="1237.4,286.74 1237.4,364.635"/>
<polyline class="Stem" stroke="#000000" stroke-width="2.75" stroke-linejoin="bevel" points="1289.39,299.241 1289.39,374.01"/>
<polyline class="Stem" stroke="#000000" stroke-width="2.75" stroke-linejoin="bevel" points="1402.31,305.181 1402.31,227.126"/>
<polyline class="Stem" stroke="#000000" stroke-width="2.75" stroke-linejoin="bevel" points="1454.3,292.68 1454.3,220.876"/>
<polyline class="Stem" stroke="#000000" stroke-width="2.75" stroke-linejoin="bevel" points="1575.2,299.241 1575.2,370.885"/>
<polyline class="Stem" stroke="#000000" stroke-width="2.75" stroke-linejoin="bevel" points="1633.85,274.239 1633.85,370.885"/>
<polyline class="Stem" stroke="#000000" stroke-width="2.75" stroke-linejoin="bevel" points="1692.49,299.241 1692.49,370.885"/>
<polyline class="Stem" stroke="#000000" stroke-width="2.75" stroke-linejoin="bevel" points="1751.13,274.239 1751.13,352.134"/>
<polyline class="Stem" stroke="#000000" stroke-width="2.75" stroke-linejoin="bevel" points="1821.73,286.74 1821.73,361.528"/>
<polyline class="Stem" stroke="#000000" stroke-width="2.75" stroke-linejoin="bevel" points="1880.37,299.241 1880.37,369.331"/>
<polyline class="Stem" stroke="#000000" stroke-width="2.75" stroke-linejoin="bevel" points="1939.01,311.741 1939.01,377.135"/>
<polyline class="Stem" stroke="#000000" stroke-width="2.75" stroke-linejoin="bevel" points="2074.8,317.682 2074.8,227.126"/>
<polyline class="Stem" stroke="#000000" stroke-width="2.75" stroke-linejoin="bevel" points="2130.74,305.181 2130.74,218.792"/>
<polyline class="Stem" stroke="#000000" stroke-width="2.75" stroke-linejoin="bevel" points="2186.68,292.68 2186.68,210.458"/>
<polyline class="Stem" stroke="#000000" stroke-width="2.75" stroke-linejoin="bevel" points="2242.62,280.179 2242.62,202.124"/>
<polyline class="Stem" stroke="#000000" stroke-width="2.75" stroke-linejoin="bevel" points="2298.56,292.68 2298.56,220.876"/>
<polyline class="Stem" stroke="#000000" stroke-width="2.75" stroke-linejoin="bevel" points="2354.5,342.683 2354.5,220.876"/>
<polyline class="Stem" stroke="#000000" stroke-width="2.75" stroke-linejoin="bevel" points="2410.44,330.182 2410.44,220.876"/>
<polyline class="Stem" stroke="#000000" stroke-width="2.75" stroke-linejoin="bevel" points="2466.38,305.181 2466.38,220.876"/>
<polyline class="Stem" stroke="#000000" stroke-width="2.75" stroke-linejoin="bevel" points="2558.38,342.683 2558.38,258.378"/>
<polyline class="Stem" stroke="#000000" stroke-width="2.75" stroke-linejoin="bevel" points="2629.84,305.181 2629.84,227.126"/>
<polyline class="Stem" stroke="#000000" stroke-width="2.75" stroke-linejoin="bevel" points="2701.31,292.68 2701.31,220.876"/>
<polyline class="Stem" stroke="#000000" stroke-width="2.75" stroke-linejoin="bevel" points="2745.98,305.181 2745.98,227.126"/>
<polyline class="Stem" stroke="#000000" stroke-width="2.75" stroke-linejoin="bevel" points="386.248,817.713 386.248,733.408"/>
<polyline class="Stem" stroke="#000000" stroke-width="2.75" stroke-linejoin="bevel" points="446.741,780.211 446.741,702.156"/>
<polyline class="Stem" stroke="#000000" stroke-width="2.75" stroke-linejoin="bevel" points="507.234,780.211 507.234,702.156"/>
<polyline class="Stem" stroke="#000000" stroke-width="2.75" stroke-linejoin="bevel" points="549.729,767.71 549.729,695.906"/>
<polyline class="Stem" stroke="#000000" stroke-width="2.75" stroke-linejoin="bevel" points="705.962,817.713 705.962,733.408"/>
<polyline class="Stem" stroke="#000000" stroke-width="2.75" stroke-linejoin="bevel" points="766.456,780.211 766.456,702.156"/>
<polyline class="Stem" stroke="#000000" stroke-width="2.75" stroke-linejoin="bevel" points="826.949,767.71 826.949,695.906"/>
<polyline class="Stem" stroke="#000000" stroke-width="2.75" stroke-linejoin="bevel" points="869.444,780.211 869.444,702.156"/>
<polyline class="Stem" stroke="#000000" stroke-width="2.75" stroke-linejoin="bevel" points="995.933,811.773 995.933,877.167"/>
<polyline class="Stem" stroke="#000000" stroke-width="2.75" stroke-linejoin="bevel" points="1038.43,736.768 1038.43,852.165"/>
<polyline class="Stem" stroke="#000000" stroke-width="2.75" stroke-linejoin="bevel" points="1083.18,736.768 1083.18,820.913"/>
<polyline class="Stem" stroke="#000000" stroke-width="2.75" stroke-linejoin="bevel" points="1142.9,761.77 1142.9,839.665"/>
<polyline class="Stem" stroke="#000000" stroke-width="2.75" stroke-linejoin="bevel" points="1296.85,749.269 1296.85,830.289"/>
<polyline class="Stem" stroke="#000000" stroke-width="2.75" stroke-linejoin="bevel" points="1370.99,749.269 1370.99,820.913"/>
<polyline class="Stem" stroke="#000000" stroke-width="2.75" stroke-linejoin="bevel" points="1417.32,749.269 1417.32,820.913"/>
<polyline class="Stem" stroke="#000000" stroke-width="2.75" stroke-linejoin="bevel" points="1463.66,761.77 1463.66,839.665"/>
<polyline class="Stem" stroke="#000000" stroke-width="2.75" stroke-linejoin="bevel" points="1509.99,774.27 1509.99,845.915"/>
<polyline class="Stem" stroke="#000000" stroke-width="2.75" stroke-linejoin="bevel" points="1602.66,724.267 1602.66,808.413"/>
<polyline class="Stem" stroke="#000000" stroke-width="2.75" stroke-linejoin="bevel" points="1694.66,724.267 1694.66,808.413"/>
<polyline class="Stem" stroke="#000000" stroke-width="2.75" stroke-linejoin="bevel" points="1764.63,724.267 1764.63,802.162"/>
<polyline class="Stem" stroke="#000000" stroke-width="2.75" stroke-linejoin="bevel" points="1808.36,761.77 1808.36,827.164"/>
<polyline class="Stem" stroke="#000000" stroke-width="2.75" stroke-linejoin="bevel" points="1881.83,767.71 1881.83,695.906"/>
<polyline class="Stem" stroke="#000000" stroke-width="2.75" stroke-linejoin="bevel" points="1925.56,780.211 1925.56,702.156"/>
<polyline class="Stem" stroke="#000000" stroke-width="2.75" stroke-linejoin="bevel" points="2073.77,805.212 2073.77,720.907"/>
<polyline class="Stem" stroke="#000000" stroke-width="2.75" stroke-linejoin="bevel" points="2096.66,774.27 2096.66,849.04"/>
<polyline class="Stem" stroke="#000000" stroke-width="2.75" stroke-linejoin="bevel" points="2149.29,774.27 2149.29,849.04"/>
<polyline class="Stem" stroke="#000000" stroke-width="2.75" stroke-linejoin="bevel" points="2357.74,811.773 2357.74,877.167"/>
<polyline class="Stem" stroke="#000000" stroke-width="2.75" stroke-linejoin="bevel" points="2400.23,774.27 2400.23,852.165"/>
<polyline class="Stem" stroke="#000000" stroke-width="2.75" stroke-linejoin="bevel" points="2444.98,774.27 2444.98,849.04"/>
<polyline class="Stem" stroke="#000000" stroke-width="2.75" stroke-linejoin="bevel" points="2508.79,761.77 2508.79,839.665"/>
<polyline class="Stem" stroke="#000000" stroke-width="2.75" stroke-linejoin="bevel" points="2551.29,786.771 2551.29,852.165"/>
<polyline class="Stem" stroke="#000000" stroke-width="2.75" stroke-linejoin="bevel" points="2673.03,780.211 2673.03,702.156"/>
<path class="Note" d="M386.629,275.286 C384.832,271.973 381.035,270.176 376.425,270.176 C373.035,270.176 369.332,271.176 365.722,273.083 C359.129,276.583 355.129,282.473 355.129,287.583 C355.129,288.973 355.425,290.38 356.129,291.676 C357.925,294.973 361.722,296.676 366.332,296.676 C369.722,296.676 373.425,295.786 377.035,293.88 C383.629,290.38 387.629,284.473 387.629,279.38 C387.629,277.973 387.332,276.583 386.629,275.286"/>
<path class="Note" d="M435.543,262.785 C433.746,259.472 429.949,257.676 425.34,257.676 C421.949,257.676 418.246,258.676 414.637,260.582 C408.043,264.082 404.043,269.972 404.043,275.082 C404.043,276.472 404.34,277.879 405.043,279.176 C406.84,282.472 410.637,284.176 415.246,284.176 C418.637,284.176 422.34,283.285 425.949,281.379 C432.543,277.879 436.543,271.972 436.543,266.879 C436.543,265.472 436.246,264.082 435.543,262.785"/>
<path class="Note" d="M484.457,275.286 C482.66,271.973 478.863,270.176 474.254,270.176 C470.863,270.176 467.16,271.176 463.551,273.083 C456.957,276.583 452.957,282.473 452.957,287.583 C452.957,288.973 453.254,290.38 453.957,291.676 C455.754,294.973 459.551,296.676 464.16,296.676 C467.551,296.676 471.254,295.786 474.863,293.88 C481.457,290.38 485.457,284.473 485.457,279.38 C485.457,277.973 485.16,276.583 484.457,275.286"/>
<path class="Note" d="M533.371,300.287 C531.574,296.975 527.778,295.178 523.168,295.178 C519.778,295.178 516.074,296.178 512.465,298.084 C505.871,301.584 501.871,307.475 501.871,312.584 C501.871,313.975 502.168,315.381 502.871,316.678 C504.668,319.975 508.465,321.678 513.074,321.678 C516.465,321.678 520.168,320.787 523.778,318.881 C530.371,315.381 534.371,309.475 534.371,304.381 C534.371,302.975 534.074,301.584 533.371,300.287"/>
<path class="Note" d="M582.286,287.787 C580.489,284.474 576.692,282.677 572.082,282.677 C568.692,282.677 564.989,283.677 561.379,285.583 C554.786,289.083 550.786,294.974 550.786,300.083 C550.786,301.474 551.082,302.88 551.786,304.177 C553.582,307.474 557.379,309.177 561.989,309.177 C565.379,309.177 569.082,308.287 572.692,306.38 C579.286,302.88 583.286,296.974 583.286,291.88 C583.286,290.474 582.989,289.083 582.286,287.787"/>
<path class="Note" d="M660.548,300.287 C658.751,296.975 654.955,295.178 650.345,295.178 C646.955,295.178 643.251,296.178 639.642,298.084 C633.048,301.584 629.048,307.475 629.048,312.584 C629.048,313.975 629.345,315.381 630.048,316.678 C631.845,319.975 635.642,321.678 640.251,321.678 C643.642,321.678 647.345,320.787 650.955,318.881 C657.548,315.381 661.548,309.475 661.548,304.381 C661.548,302.975 661.251,301.584 660.548,300.287"/>
<path class="Note" d="M773.313,325.289 C771.516,321.976 767.72,320.18 763.11,320.18 C759.72,320.18 756.016,321.18 752.407,323.086 C745.813,326.586 741.813,332.476 741.813,337.586 C741.813,338.976 742.11,340.383 742.813,341.68 C744.61,344.976 748.407,346.68 753.016,346.68 C756.407,346.68 760.11,345.789 763.72,343.883 C770.313,340.383 774.313,334.476 774.313,329.383 C774.313,327.976 774.016,326.586 773.313,325.289"/>
<path class="Note" d="M841.229,300.287 C839.432,296.975 835.636,295.178 831.026,295.178 C827.636,295.178 823.932,296.178 820.323,298.084 C813.729,301.584 809.729,307.475 809.729,312.584 C809.729,313.975 810.026,315.381 810.729,316.678 C812.526,319.975 816.323,321.678 820.932,321.678 C824.323,321.678 828.026,320.787 831.636,318.881 C838.229,315.381 842.229,309.475 842.229,304.381 C842.229,302.975 841.932,301.584 841.229,300.287"/>
<path class="Note" d="M909.145,300.287 C907.348,296.975 903.551,295.178 898.942,295.178 C895.551,295.178 891.848,296.178 888.239,298.084 C881.645,301.584 877.645,307.475 877.645,312.584 C877.645,313.975 877.942,315.381 878.645,316.678 C880.442,319.975 884.239,321.678 888.848,321.678 C892.239,321.678 895.942,320.787 899.551,318.881 C906.145,315.381 910.145,309.475 910.145,304.381 C910.145,302.975 909.848,301.584 909.145,300.287"/>
<path class="Note" d="M977.061,300.287 C975.264,296.975 971.467,295.178 966.858,295.178 C963.467,295.178 959.764,296.178 956.155,298.084 C949.561,301.584 945.561,307.475 945.561,312.584 C945.561,313.975 945.858,315.381 946.561,316.678 C948.358,319.975 952.155,321.678 956.764,321.678 C960.155,321.678 963.858,320.787 967.467,318.881 C974.061,315.381 978.061,309.475 978.061,304.381 C978.061,302.975 977.764,301.584 977.061,300.287"/>
<path class="Note" d="M1019.56,287.787 C1017.76,284.474 1013.96,282.677 1009.35,282.677 C1005.96,282.677 1002.26,283.677 998.65,285.583 C992.056,289.083 988.056,294.974 988.056,300.083 C988.056,301.474 988.353,302.88 989.056,304.177 C990.853,307.474 994.65,309.177 999.259,309.177 C1002.65,309.177 1006.35,308.287 1009.96,306.38 C1016.56,302.88 1020.56,296.974 1020.56,291.88 C1020.56,290.474 1020.26,289.083 1019.56,287.787"/>
<path class="Note" d="M1111.55,287.787 C1109.76,284.474 1105.96,282.677 1101.35,282.677 C1097.96,282.677 1094.26,283.677 1090.65,285.583 C1084.05,289.083 1080.05,294.974 1080.05,300.083 C1080.05,301.474 1080.35,302.88 1081.05,304.177 C1082.85,307.474 1086.65,309.177 1091.26,309.177 C1094.65,309.177 1098.35,308.287 1101.96,306.38 C1108.55,302.88 1112.55,296.974 1112.55,291.88 C1112.55,290.474 1112.26,289.083 1111.55,287.787"/>
<path class="Note" d="M1163.54,287.787 C1161.75,284.474 1157.95,282.677 1153.34,282.677 C1149.95,282.677 1146.25,283.677 1142.64,285.583 C1136.04,289.083 1132.04,294.974 1132.04,300.083 C1132.04,301.474 1132.34,302.88 1133.04,304.177 C1134.84,307.474 1138.64,309.177 1143.25,309.177 C1146.64,309.177 1150.34,308.287 1153.95,306.38 C1160.54,302.88 1164.54,296.974 1164.54,291.88 C1164.54,290.474 1164.25,289.083 1163.54,287.787"/>
<path class="Note" d="M1215.53,275.286 C1213.74,271.973 1209.94,270.176 1205.33,270.176 C1201.94,270.176 1198.24,271.176 1194.63,273.083 C1188.03,276.583 1184.03,282.473 1184.03,287.583 C1184.03,288.973 1184.33,290.38 1185.03,291.676 C1186.83,294.973 1190.63,296.676 1195.24,296.676 C1198.63,296.676 1202.33,295.786 1205.94,293.88 C1212.53,290.38 1216.53,284.473 1216.53,279.38 C1216.53,277.973 1216.24,276.583 1215.53,275.286"/>
<path class="Note" d="M1267.52,275.286 C1265.73,271.973 1261.93,270.176 1257.32,270.176 C1253.93,270.176 1250.23,271.176 1246.62,273.083 C1240.02,276.583 1236.02,282.473 1236.02,287.583 C1236.02,288.973 1236.32,290.38 1237.02,291.676 C1238.82,294.973 1242.62,296.676 1247.23,296.676 C1250.62,296.676 1254.32,295.786 1257.93,293.88 C1264.52,290.38 1268.52,284.473 1268.52,279.38 C1268.52,277.973 1268.23,276.583 1267.52,275.286"/>
<path class="Note" d="M1319.51,287.787 C1317.72,284.474 1313.92,282.677 1309.31,282.677 C1305.92,282.677 1302.22,283.677 1298.61,285.583 C1292.01,289.083 1288.01,294.974 1288.01,300.083 C1288.01,301.474 1288.31,302.88 1289.01,304.177 C1290.81,307.474 1294.61,309.177 1299.22,309.177 C1302.61,309.177 1306.31,308.287 1309.92,306.38 C1316.51,302.88 1320.51,296.974 1320.51,291.88 C1320.51,290.474 1320.22,289.083 1319.51,287.787"/>
<path class="Note" d="M1402.7,300.287 C1400.9,296.975 1397.1,295.178 1392.49,295.178 C1389.1,295.178 1385.4,296.178 1381.79,298.084 C1375.2,301.584 1371.2,307.475 1371.2,312.584 C1371.2,313.975 1371.49,315.381 1372.2,316.678 C1373.99,319.975 1377.79,321.678 1382.4,321.678 C1385.79,321.678 1389.49,320.787 1393.1,318.881 C1399.7,315.381 1403.7,309.475 1403.7,304.381 C1403.7,302.975 1403.4,301.584 1402.7,300.287"/>
<path class="Note" d="M1454.68,287.787 C1452.89,284.474 1449.09,282.677 1444.48,282.677 C1441.09,282.677 1437.39,283.677 1433.78,285.583 C1427.18,289.083 1423.18,294.974 1423.18,300.083 C1423.18,301.474 1423.48,302.88 1424.18,304.177 C1425.98,307.474 1429.78,309.177 1434.39,309.177 C1437.78,309.177 1441.48,308.287 1445.09,306.38 C1451.68,302.88 1455.68,296.974 1455.68,291.88 C1455.68,290.474 1455.39,289.083 1454.68,287.787"/>
<path class="Note" d="M1605.33,287.787 C1603.53,284.474 1599.73,282.677 1595.12,282.677 C1591.73,282.677 1588.03,283.677 1584.42,285.583 C1577.83,289.083 1573.83,294.974 1573.83,300.083 C1573.83,301.474 1574.12,302.88 1574.83,304.177 C1576.62,307.474 1580.42,309.177 1585.03,309.177 C1588.42,309.177 1592.12,308.287 1595.73,306.38 C1602.33,302.88 1606.33,296.974 1606.33,291.88 C1606.33,290.474 1606.03,289.083 1605.33,287.787"/>
<path class="Note" d="M1663.97,262.785 C1662.17,259.472 1658.38,257.676 1653.77,257.676 C1650.38,257.676 1646.67,258.676 1643.07,260.582 C1636.47,264.082 1632.47,269.972 1632.47,275.082 C1632.47,276.472 1632.77,277.879 1633.47,279.176 C1635.27,282.472 1639.07,284.176 1643.67,284.176 C1647.07,284.176 1650.77,283.285 1654.38,281.379 C1660.97,277.879 1664.97,271.972 1664.97,266.879 C1664.97,265.472 1664.67,264.082 1663.97,262.785"/>
<path class="Note" d="M1722.62,287.787 C1720.82,284.474 1717.02,282.677 1712.41,282.677 C1709.02,282.677 1705.32,283.677 1701.71,285.583 C1695.12,289.083 1691.12,294.974 1691.12,300.083 C1691.12,301.474 1691.41,302.88 1692.12,304.177 C1693.91,307.474 1697.71,309.177 1702.32,309.177 C1705.71,309.177 1709.41,308.287 1713.02,306.38 C1719.62,302.88 1723.62,296.974 1723.62,291.88 C1723.62,290.474 1723.32,289.083 1722.62,287.787"/>
<path class="Note" d="M1781.26,262.785 C1779.46,259.472 1775.67,257.676 1771.06,257.676 C1767.67,257.676 1763.96,258.676 1760.35,260.582 C1753.76,264.082 1749.76,269.972 1749.76,275.082 C1749.76,276.472 1750.06,277.879 1750.76,279.176 C1752.56,282.472 1756.35,284.176 1760.96,284.176 C1764.35,284.176 1768.06,283.285 1771.67,281.379 C1778.26,277.879 1782.26,271.972 1782.26,266.879 C1782.26,265.472 1781.96,264.082 1781.26,262.785"/>
<path class="Note" d="M1851.85,275.286 C1850.05,271.973 1846.26,270.176 1841.65,270.176 C1838.26,270.176 1834.55,271.176 1830.94,273.083 C1824.35,276.583 1820.35,282.473 1820.35,287.583 C1820.35,288.973 1820.65,290.38 1821.35,291.676 C1823.15,294.973 1826.94,296.676 1831.55,296.676 C1834.94,296.676 1838.65,295.786 1842.26,293.88 C1848.85,290.38 1852.85,284.473 1852.85,279.38 C1852.85,277.973 1852.55,276.583 1851.85,275.286"/>
<path class="Note" d="M1910.49,287.787 C1908.7,284.474 1904.9,282.677 1900.29,282.677 C1896.9,282.677 1893.2,283.677 1889.59,285.583 C1882.99,289.083 1878.99,294.974 1878.99,300.083 C1878.99,301.474 1879.29,302.88 1879.99,304.177 C1881.79,307.474 1885.59,309.177 1890.2,309.177 C1893.59,309.177 1897.29,308.287 1900.9,306.38 C1907.49,302.88 1911.49,296.974 1911.49,291.88 C1911.49,290.474 1911.2,289.083 1910.49,287.787"/>
<path class="Note" d="M1969.14,300.287 C1967.34,296.975 1963.54,295.178 1958.94,295.178 C1955.54,295.178 1951.84,296.178 1948.23,298.084 C1941.64,301.584 1937.64,307.475 1937.64,312.584 C1937.64,313.975 1937.94,315.381 1938.64,316.678 C1940.44,319.975 1944.23,321.678 1948.84,321.678 C1952.23,321.678 1955.94,320.787 1959.54,318.881 C1966.14,315.381 1970.14,309.475 1970.14,304.381 C1970.14,302.975 1969.84,301.584 1969.14,300.287"/>
<path class="Note" d="M2075.18,312.788 C2073.39,309.476 2069.59,307.679 2064.98,307.679 C2061.59,307.679 2057.89,308.679 2054.28,310.585 C2047.68,314.085 2043.68,319.976 2043.68,325.085 C2043.68,326.476 2043.98,327.882 2044.68,329.179 C2046.48,332.476 2050.28,334.179 2054.89,334.179 C2058.28,334.179 2061.98,333.288 2065.59,331.382 C2072.18,327.882 2076.18,321.976 2076.18,316.882 C2076.18,315.476 2075.89,314.085 2075.18,312.788"/>
<path class="Note" d="M2131.12,300.287 C2129.33,296.975 2125.53,295.178 2120.92,295.178 C2117.53,295.178 2113.83,296.178 2110.22,298.084 C2103.62,301.584 2099.62,307.475 2099.62,312.584 C2099.62,313.975 2099.92,315.381 2100.62,316.678 C2102.42,319.975 2106.22,321.678 2110.83,321.678 C2114.22,321.678 2117.92,320.787 2121.53,318.881 C2128.12,315.381 2132.12,309.475 2132.12,304.381 C2132.12,302.975 2131.83,301.584 2131.12,300.287"/>
<path class="Note" d="M2187.06,287.787 C2185.27,284.474 2181.47,282.677 2176.86,282.677 C2173.47,282.677 2169.77,283.677 2166.16,285.583 C2159.56,289.083 2155.56,294.974 2155.56,300.083 C2155.56,301.474 2155.86,302.88 2156.56,304.177 C2158.36,307.474 2162.16,309.177 2166.77,309.177 C2170.16,309.177 2173.86,308.287 2177.47,306.38 C2184.06,302.88 2188.06,296.974 2188.06,291.88 C2188.06,290.474 2187.77,289.083 2187.06,287.787"/>
<path class="Note" d="M2243,275.286 C2241.21,271.973 2237.41,270.176 2232.8,270.176 C2229.41,270.176 2225.71,271.176 2222.1,273.083 C2215.5,276.583 2211.5,282.473 2211.5,287.583 C2211.5,288.973 2211.8,290.38 2212.5,291.676 C2214.3,294.973 2218.1,296.676 2222.71,296.676 C2226.1,296.676 2229.8,295.786 2233.41,293.88 C2240,290.38 2244,284.473 2244,279.38 C2244,277.973 2243.71,276.583 2243,275.286"/>
<path class="Note" d="M2298.94,287.787 C2297.14,284.474 2293.35,282.677 2288.74,282.677 C2285.35,282.677 2281.64,283.677 2278.04,285.583 C2271.44,289.083 2267.44,294.974 2267.44,300.083 C2267.44,301.474 2267.74,302.88 2268.44,304.177 C2270.24,307.474 2274.04,309.177 2278.64,309.177 C2282.04,309.177 2285.74,308.287 2289.35,306.38 C2295.94,302.88 2299.94,296.974 2299.94,291.88 C2299.94,290.474 2299.64,289.083 2298.94,287.787"/>
<path class="Note" d="M2354.88,337.79 C2353.08,334.477 2349.29,332.68 2344.68,332.68 C2341.29,332.68 2337.58,333.68 2333.97,335.587 C2327.38,339.087 2323.38,344.977 2323.38,350.087 C2323.38,351.477 2323.68,352.883 2324.38,354.18 C2326.18,357.477 2329.97,359.18 2334.58,359.18 C2337.97,359.18 2341.68,358.29 2345.29,356.383 C2351.88,352.883 2355.88,346.977 2355.88,341.883 C2355.88,340.477 2355.58,339.087 2354.88,337.79"/>
<path class="Note" d="M2410.82,325.289 C2409.02,321.976 2405.23,320.18 2400.62,320.18 C2397.23,320.18 2393.52,321.18 2389.91,323.086 C2383.32,326.586 2379.32,332.476 2379.32,337.586 C2379.32,338.976 2379.62,340.383 2380.32,341.68 C2382.12,344.976 2385.91,346.68 2390.52,346.68 C2393.91,346.68 2397.62,345.789 2401.23,343.883 C2407.82,340.383 2411.82,334.476 2411.82,329.383 C2411.82,327.976 2411.52,326.586 2410.82,325.289"/>
<path class="Note" d="M2466.76,300.287 C2464.96,296.975 2461.17,295.178 2456.56,295.178 C2453.17,295.178 2449.46,296.178 2445.85,298.084 C2439.26,301.584 2435.26,307.475 2435.26,312.584 C2435.26,313.975 2435.56,315.381 2436.26,316.678 C2438.06,319.975 2441.85,321.678 2446.46,321.678 C2449.85,321.678 2453.56,320.787 2457.17,318.881 C2463.76,315.381 2467.76,309.475 2467.76,304.381 C2467.76,302.975 2467.46,301.584 2466.76,300.287"/>
<path class="Note" d="M2558.76,337.79 C2556.96,334.477 2553.16,332.68 2548.55,332.68 C2545.16,332.68 2541.46,333.68 2537.85,335.587 C2531.26,339.087 2527.26,344.977 2527.26,350.087 C2527.26,351.477 2527.55,352.883 2528.26,354.18 C2530.05,357.477 2533.85,359.18 2538.46,359.18 C2541.85,359.18 2545.55,358.29 2549.16,356.383 C2555.76,352.883 2559.76,346.977 2559.76,341.883 C2559.76,340.477 2559.46,339.087 2558.76,337.79"/>
<path class="Note" d="M2630.23,300.287 C2628.43,296.975 2624.63,295.178 2620.02,295.178 C2616.63,295.178 2612.93,296.178 2609.32,298.084 C2602.73,301.584 2598.73,307.475 2598.73,312.584 C2598.73,313.975 2599.02,315.381 2599.73,316.678 C2601.52,319.975 2605.32,321.678 2609.93,321.678 C2613.32,321.678 2617.02,320.787 2620.63,318.881 C2627.23,315.381 2631.23,309.475 2631.23,304.381 C2631.23,302.975 2630.93,301.584 2630.23,300.287"/>
<path class="Note" d="M2701.69,287.787 C2699.9,284.474 2696.1,282.677 2691.49,282.677 C2688.1,282.677 2684.4,283.677 2680.79,285.583 C2674.19,289.083 2670.19,294.974 2670.19,300.083 C2670.19,301.474 2670.49,302.88 2671.19,304.177 C2672.99,307.474 2676.79,309.177 2681.4,309.177 C2684.79,309.177 2688.49,308.287 2692.1,306.38 C2698.69,302.88 2702.69,296.974 2702.69,291.88 C2702.69,290.474 2702.4,289.083 2701.69,287.787"/>
<path class="Note" d="M2746.36,300.287 C2744.56,296.975 2740.77,295.178 2736.16,295.178 C2732.77,295.178 2729.06,296.178 2725.45,298.084 C2718.86,301.584 2714.86,307.475 2714.86,312.584 C2714.86,313.975 2715.16,315.381 2715.86,316.678 C2717.66,319.975 2721.45,321.678 2726.06,321.678 C2729.45,321.678 2733.16,320.787 2736.77,318.881 C2743.36,315.381 2747.36,309.475 2747.36,304.381 C2747.36,302.975 2747.06,301.584 2746.36,300.287"/>
<path class="Note" d="M386.629,812.82 C384.832,809.507 381.035,807.71 376.425,807.71 C373.035,807.71 369.332,808.71 365.722,810.617 C359.129,814.117 355.129,820.007 355.129,825.117 C355.129,826.507 355.425,827.913 356.129,829.21 C357.925,832.507 361.722,834.21 366.332,834.21 C369.722,834.21 373.425,833.32 377.035,831.413 C383.629,827.913 387.629,822.007 387.629,816.913 C387.629,815.507 387.332,814.117 386.629,812.82"/>
<path class="Note" d="M447.122,775.317 C445.325,772.005 441.528,770.208 436.919,770.208 C433.528,770.208 429.825,771.208 426.215,773.114 C419.622,776.614 415.622,782.505 415.622,787.614 C415.622,789.005 415.919,790.411 416.622,791.708 C418.419,795.005 422.215,796.708 426.825,796.708 C430.215,796.708 433.919,795.817 437.528,793.911 C444.122,790.411 448.122,784.505 448.122,779.411 C448.122,778.005 447.825,776.614 447.122,775.317"/>
<path class="Note" d="M507.615,775.317 C505.818,772.005 502.021,770.208 497.412,770.208 C494.021,770.208 490.318,771.208 486.709,773.114 C480.115,776.614 476.115,782.505 476.115,787.614 C476.115,789.005 476.412,790.411 477.115,791.708 C478.912,795.005 482.709,796.708 487.318,796.708 C490.709,796.708 494.412,795.817 498.021,793.911 C504.615,790.411 508.615,784.505 508.615,779.411 C508.615,778.005 508.318,776.614 507.615,775.317"/>
<path class="Note" d="M550.11,762.816 C548.313,759.504 544.516,757.707 539.907,757.707 C536.516,757.707 532.813,758.707 529.203,760.613 C522.61,764.113 518.61,770.004 518.61,775.113 C518.61,776.504 518.907,777.91 519.61,779.207 C521.407,782.504 525.203,784.207 529.813,784.207 C533.203,784.207 536.907,783.316 540.516,781.41 C547.11,777.91 551.11,772.004 551.11,766.91 C551.11,765.504 550.813,764.113 550.11,762.816"/>
<path class="Note" d="M706.343,812.82 C704.546,809.507 700.75,807.71 696.14,807.71 C692.75,807.71 689.046,808.71 685.437,810.617 C678.843,814.117 674.843,820.007 674.843,825.117 C674.843,826.507 675.14,827.913 675.843,829.21 C677.64,832.507 681.437,834.21 686.046,834.21 C689.437,834.21 693.14,833.32 696.75,831.413 C703.343,827.913 707.343,822.007 707.343,816.913 C707.343,815.507 707.046,814.117 706.343,812.82"/>
<path class="Note" d="M766.836,775.317 C765.04,772.005 761.243,770.208 756.633,770.208 C753.243,770.208 749.54,771.208 745.93,773.114 C739.336,776.614 735.336,782.505 735.336,787.614 C735.336,789.005 735.633,790.411 736.336,791.708 C738.133,795.005 741.93,796.708 746.54,796.708 C749.93,796.708 753.633,795.817 757.243,793.911 C763.836,790.411 767.836,784.505 767.836,779.411 C767.836,778.005 767.54,776.614 766.836,775.317"/>
<path class="Note" d="M827.33,762.816 C825.533,759.504 821.736,757.707 817.126,757.707 C813.736,757.707 810.033,758.707 806.423,760.613 C799.83,764.113 795.83,770.004 795.83,775.113 C795.83,776.504 796.126,777.91 796.83,779.207 C798.626,782.504 802.423,784.207 807.033,784.207 C810.423,784.207 814.126,783.316 817.736,781.41 C824.33,777.91 828.33,772.004 828.33,766.91 C828.33,765.504 828.033,764.113 827.33,762.816"/>
<path class="Note" d="M869.824,775.317 C868.028,772.005 864.231,770.208 859.621,770.208 C856.231,770.208 852.528,771.208 848.918,773.114 C842.324,776.614 838.324,782.505 838.324,787.614 C838.324,789.005 838.621,790.411 839.324,791.708 C841.121,795.005 844.918,796.708 849.528,796.708 C852.918,796.708 856.621,795.817 860.231,793.911 C866.824,790.411 870.824,784.505 870.824,779.411 C870.824,778.005 870.528,776.614 869.824,775.317"/>
<path class="Note" d="M1026.06,800.319 C1024.26,797.006 1020.46,795.209 1015.85,795.209 C1012.46,795.209 1008.76,796.209 1005.15,798.116 C998.558,801.616 994.558,807.506 994.558,812.616 C994.558,814.006 994.855,815.413 995.558,816.709 C997.355,820.006 1001.15,821.709 1005.76,821.709 C1009.15,821.709 1012.85,820.819 1016.46,818.913 C1023.06,815.413 1027.06,809.506 1027.06,804.413 C1027.06,803.006 1026.76,801.616 1026.06,800.319"/>
<path class="Note" d="M1068.55,725.314 C1066.76,722.002 1062.96,720.205 1058.35,720.205 C1054.96,720.205 1051.26,721.205 1047.65,723.111 C1041.05,726.611 1037.05,732.502 1037.05,737.611 C1037.05,739.002 1037.35,740.408 1038.05,741.705 C1039.85,745.002 1043.65,746.705 1048.26,746.705 C1051.65,746.705 1055.35,745.814 1058.96,743.908 C1065.55,740.408 1069.55,734.502 1069.55,729.408 C1069.55,728.002 1069.26,726.611 1068.55,725.314"/>
<path class="Note" d="M1113.3,725.314 C1111.51,722.002 1107.71,720.205 1103.1,720.205 C1099.71,720.205 1096.01,721.205 1092.4,723.111 C1085.8,726.611 1081.8,732.502 1081.8,737.611 C1081.8,739.002 1082.1,740.408 1082.8,741.705 C1084.6,745.002 1088.4,746.705 1093.01,746.705 C1096.4,746.705 1100.1,745.814 1103.71,743.908 C1110.3,740.408 1114.3,734.502 1114.3,729.408 C1114.3,728.002 1114.01,726.611 1113.3,725.314"/>
<path class="Note" d="M1173.03,750.316 C1171.23,747.003 1167.43,745.206 1162.82,745.206 C1159.43,745.206 1155.73,746.206 1152.12,748.113 C1145.53,751.613 1141.53,757.503 1141.53,762.613 C1141.53,764.003 1141.82,765.409 1142.53,766.706 C1144.32,770.003 1148.12,771.706 1152.73,771.706 C1156.12,771.706 1159.82,770.816 1163.43,768.909 C1170.03,765.409 1174.03,759.503 1174.03,754.409 C1174.03,753.003 1173.73,751.613 1173.03,750.316"/>
<path class="Note" d="M1326.98,737.815 C1325.18,734.502 1321.38,732.706 1316.77,732.706 C1313.38,732.706 1309.68,733.706 1306.07,735.612 C1299.48,739.112 1295.48,745.002 1295.48,750.112 C1295.48,751.502 1295.77,752.909 1296.48,754.206 C1298.27,757.502 1302.07,759.206 1306.68,759.206 C1310.07,759.206 1313.77,758.315 1317.38,756.409 C1323.98,752.909 1327.98,747.002 1327.98,741.909 C1327.98,740.502 1327.68,739.112 1326.98,737.815"/>
<path class="Note" d="M1401.11,737.815 C1399.32,734.502 1395.52,732.706 1390.91,732.706 C1387.52,732.706 1383.82,733.706 1380.21,735.612 C1373.61,739.112 1369.61,745.002 1369.61,750.112 C1369.61,751.502 1369.91,752.909 1370.61,754.206 C1372.41,757.502 1376.21,759.206 1380.82,759.206 C1384.21,759.206 1387.91,758.315 1391.52,756.409 C1398.11,752.909 1402.11,747.002 1402.11,741.909 C1402.11,740.502 1401.82,739.112 1401.11,737.815"/>
<path class="Note" d="M1447.45,737.815 C1445.65,734.502 1441.85,732.706 1437.24,732.706 C1433.85,732.706 1430.15,733.706 1426.54,735.612 C1419.95,739.112 1415.95,745.002 1415.95,750.112 C1415.95,751.502 1416.24,752.909 1416.95,754.206 C1418.74,757.502 1422.54,759.206 1427.15,759.206 C1430.54,759.206 1434.24,758.315 1437.85,756.409 C1444.45,752.909 1448.45,747.002 1448.45,741.909 C1448.45,740.502 1448.15,739.112 1447.45,737.815"/>
<path class="Note" d="M1493.78,750.316 C1491.98,747.003 1488.19,745.206 1483.58,745.206 C1480.19,745.206 1476.48,746.206 1472.88,748.113 C1466.28,751.613 1462.28,757.503 1462.28,762.613 C1462.28,764.003 1462.58,765.409 1463.28,766.706 C1465.08,770.003 1468.88,771.706 1473.48,771.706 C1476.88,771.706 1480.58,770.816 1484.19,768.909 C1490.78,765.409 1494.78,759.503 1494.78,754.409 C1494.78,753.003 1494.48,751.613 1493.78,750.316"/>
<path class="Note" d="M1540.12,762.816 C1538.32,759.504 1534.52,757.707 1529.91,757.707 C1526.52,757.707 1522.82,758.707 1519.21,760.613 C1512.62,764.113 1508.62,770.004 1508.62,775.113 C1508.62,776.504 1508.91,777.91 1509.62,779.207 C1511.41,782.504 1515.21,784.207 1519.82,784.207 C1523.21,784.207 1526.91,783.316 1530.52,781.41 C1537.12,777.91 1541.12,772.004 1541.12,766.91 C1541.12,765.504 1540.82,764.113 1540.12,762.816"/>
<path class="Note" d="M1632.79,712.813 C1630.99,709.501 1627.19,707.704 1622.58,707.704 C1619.19,707.704 1615.49,708.704 1611.88,710.61 C1605.29,714.11 1601.29,720.001 1601.29,725.11 C1601.29,726.501 1601.58,727.907 1602.29,729.204 C1604.08,732.501 1607.88,734.204 1612.49,734.204 C1615.88,734.204 1619.58,733.313 1623.19,731.407 C1629.79,727.907 1633.79,722.001 1633.79,716.907 C1633.79,715.501 1633.49,714.11 1632.79,712.813"/>
<path class="Note" d="M1724.78,712.813 C1722.99,709.501 1719.19,707.704 1714.58,707.704 C1711.19,707.704 1707.49,708.704 1703.88,710.61 C1697.28,714.11 1693.28,720.001 1693.28,725.11 C1693.28,726.501 1693.58,727.907 1694.28,729.204 C1696.08,732.501 1699.88,734.204 1704.49,734.204 C1707.88,734.204 1711.58,733.313 1715.19,731.407 C1721.78,727.907 1725.78,722.001 1725.78,716.907 C1725.78,715.501 1725.49,714.11 1724.78,712.813"/>
<path class="Note" d="M1794.75,712.813 C1792.96,709.501 1789.16,707.704 1784.55,707.704 C1781.16,707.704 1777.46,708.704 1773.85,710.61 C1767.25,714.11 1763.25,720.001 1763.25,725.11 C1763.25,726.501 1763.55,727.907 1764.25,729.204 C1766.05,732.501 1769.85,734.204 1774.46,734.204 C1777.85,734.204 1781.55,733.313 1785.16,731.407 C1791.75,727.907 1795.75,722.001 1795.75,716.907 C1795.75,715.501 1795.46,714.11 1794.75,712.813"/>
<path class="Note" d="M1838.48,750.316 C1836.69,747.003 1832.89,745.206 1828.28,745.206 C1824.89,745.206 1821.19,746.206 1817.58,748.113 C1810.98,751.613 1806.98,757.503 1806.98,762.613 C1806.98,764.003 1807.28,765.409 1807.98,766.706 C1809.78,770.003 1813.58,771.706 1818.19,771.706 C1821.58,771.706 1825.28,770.816 1828.89,768.909 C1835.48,765.409 1839.48,759.503 1839.48,754.409 C1839.48,753.003 1839.19,751.613 1838.48,750.316"/>
<path class="Note" d="M1882.21,762.816 C1880.42,759.504 1876.62,757.707 1872.01,757.707 C1868.62,757.707 1864.92,758.707 1861.31,760.613 C1854.71,764.113 1850.71,770.004 1850.71,775.113 C1850.71,776.504 1851.01,777.91 1851.71,779.207 C1853.51,782.504 1857.31,784.207 1861.92,784.207 C1865.31,784.207 1869.01,783.316 1872.62,781.41 C1879.21,777.91 1883.21,772.004 1883.21,766.91 C1883.21,765.504 1882.92,764.113 1882.21,762.816"/>
<path class="Note" d="M1925.94,775.317 C1924.15,772.005 1920.35,770.208 1915.74,770.208 C1912.35,770.208 1908.65,771.208 1905.04,773.114 C1898.44,776.614 1894.44,782.505 1894.44,787.614 C1894.44,789.005 1894.74,790.411 1895.44,791.708 C1897.24,795.005 1901.04,796.708 1905.65,796.708 C1909.04,796.708 1912.74,795.817 1916.35,793.911 C1922.94,790.411 1926.94,784.505 1926.94,779.411 C1926.94,778.005 1926.65,776.614 1925.94,775.317"/>
<path class="Note" d="M2074.15,800.319 C2072.35,797.006 2068.55,795.209 2063.94,795.209 C2060.55,795.209 2056.85,796.209 2053.24,798.116 C2046.65,801.616 2042.65,807.506 2042.65,812.616 C2042.65,814.006 2042.94,815.413 2043.65,816.709 C2045.44,820.006 2049.24,821.709 2053.85,821.709 C2057.24,821.709 2060.94,820.819 2064.55,818.913 C2071.15,815.413 2075.15,809.506 2075.15,804.413 C2075.15,803.006 2074.85,801.616 2074.15,800.319"/>
<path class="Note" d="M2126.78,762.816 C2124.98,759.504 2121.19,757.707 2116.58,757.707 C2113.19,757.707 2109.48,758.707 2105.88,760.613 C2099.28,764.113 2095.28,770.004 2095.28,775.113 C2095.28,776.504 2095.58,777.91 2096.28,779.207 C2098.08,782.504 2101.88,784.207 2106.48,784.207 C2109.88,784.207 2113.58,783.316 2117.19,781.41 C2123.78,777.91 2127.78,772.004 2127.78,766.91 C2127.78,765.504 2127.48,764.113 2126.78,762.816"/>
<path class="Note" d="M2179.42,762.816 C2177.62,759.504 2173.82,757.707 2169.21,757.707 C2165.82,757.707 2162.12,758.707 2158.51,760.613 C2151.92,764.113 2147.92,770.004 2147.92,775.113 C2147.92,776.504 2148.21,777.91 2148.92,779.207 C2150.71,782.504 2154.51,784.207 2159.12,784.207 C2162.51,784.207 2166.21,783.316 2169.82,781.41 C2176.42,777.91 2180.42,772.004 2180.42,766.91 C2180.42,765.504 2180.12,764.113 2179.42,762.816"/>
<path class="Note" d="M2387.86,800.319 C2386.07,797.006 2382.27,795.209 2377.66,795.209 C2374.27,795.209 2370.57,796.209 2366.96,798.116 C2360.36,801.616 2356.36,807.506 2356.36,812.616 C2356.36,814.006 2356.66,815.413 2357.36,816.709 C2359.16,820.006 2362.96,821.709 2367.57,821.709 C2370.96,821.709 2374.66,820.819 2378.27,818.913 C2384.86,815.413 2388.86,809.506 2388.86,804.413 C2388.86,803.006 2388.57,801.616 2387.86,800.319"/>
<path class="Note" d="M2430.36,762.816 C2428.56,759.504 2424.76,757.707 2420.15,757.707 C2416.76,757.707 2413.06,758.707 2409.45,760.613 C2402.86,764.113 2398.86,770.004 2398.86,775.113 C2398.86,776.504 2399.15,777.91 2399.86,779.207 C2401.65,782.504 2405.45,784.207 2410.06,784.207 C2413.45,784.207 2417.15,783.316 2420.76,781.41 C2427.36,777.91 2431.36,772.004 2431.36,766.91 C2431.36,765.504 2431.06,764.113 2430.36,762.816"/>
<path class="Note" d="M2475.11,762.816 C2473.31,759.504 2469.51,757.707 2464.9,757.707 C2461.51,757.707 2457.81,758.707 2454.2,760.613 C2447.61,764.113 2443.61,770.004 2443.61,775.113 C2443.61,776.504 2443.9,777.91 2444.61,779.207 C2446.4,782.504 2450.2,784.207 2454.81,784.207 C2458.2,784.207 2461.9,783.316 2465.51,781.41 C2472.11,777.91 2476.11,772.004 2476.11,766.91 C2476.11,765.504 2475.81,764.113 2475.11,762.816"/>
<path class="Note" d="M2538.92,750.316 C2537.12,747.003 2533.33,745.206 2528.72,745.206 C2525.33,745.206 2521.62,746.206 2518.01,748.113 C2511.42,751.613 2507.42,757.503 2507.42,762.613 C2507.42,764.003 2507.72,765.409 2508.42,766.706 C2510.22,770.003 2514.01,771.706 2518.62,771.706 C2522.01,771.706 2525.72,770.816 2529.33,768.909 C2535.92,765.409 2539.92,759.503 2539.92,754.409 C2539.92,753.003 2539.62,751.613 2538.92,750.316"/>
<path class="Note" d="M2581.41,775.317 C2579.62,772.005 2575.82,770.208 2571.21,770.208 C2567.82,770.208 2564.12,771.208 2560.51,773.114 C2553.91,776.614 2549.91,782.505 2549.91,787.614 C2549.91,789.005 2550.21,790.411 2550.91,791.708 C2552.71,795.005 2556.51,796.708 2561.12,796.708 C2564.51,796.708 2568.21,795.817 2571.82,793.911 C2578.41,790.411 2582.41,784.505 2582.41,779.411 C2582.41,778.005 2582.12,776.614 2581.41,775.317"/>
<path class="Note" d="M2673.41,775.317 C2671.62,772.005 2667.82,770.208 2663.21,770.208 C2659.82,770.208 2656.12,771.208 2652.51,773.114 C2645.91,776.614 2641.91,782.505 2641.91,787.614 C2641.91,789.005 2642.21,790.411 2642.91,791.708 C2644.71,795.005 2648.51,796.708 2653.12,796.708 C2656.51,796.708 2660.21,795.817 2663.82,793.911 C2670.41,790.411 2674.41,784.505 2674.41,779.411 C2674.41,778.005 2674.12,776.614 2673.41,775.317"/>
<path class="Clef" d="M217.592,314.96 C216.358,309.538 213.717,305.71 212.936,304.679 C209.749,300.398 205.733,297.554 201.046,296.194 C197.936,295.319 194.936,295.194 192.514,295.382 C191.467,289.366 190.467,283.491 189.561,278.038 C195.014,271.866 198.639,266.069 200.921,261.773 C204.389,255.194 205.53,250.616 205.592,250.413 C207.311,245.194 207.671,237.491 206.561,229.288 C205.561,221.741 203.467,215.023 201.108,211.773 C200.092,210.351 199.03,209.616 197.999,209.616 C196.78,209.616 194.264,210.851 191.374,213.632 C189.077,215.819 185.811,219.71 183.249,225.726 C180.249,232.788 180.03,242.273 180.389,248.991 C180.764,256.273 181.874,261.96 181.889,262.007 C181.905,262.101 182.171,263.601 182.608,266.163 C182.389,266.398 182.139,266.616 181.889,266.866 C180.858,267.866 179.671,268.991 178.28,270.382 C177.421,271.241 176.467,272.148 175.467,273.116 C167.03,281.257 154.233,293.585 154.233,312.741 C154.233,317.444 155.139,321.866 156.921,325.882 C158.499,329.476 160.796,332.757 163.733,335.632 C171.467,343.194 182.061,346.398 189.108,346.241 C192.061,346.163 194.702,345.929 197.092,345.476 C198.921,355.085 200.061,362.116 200.092,367.46 C200.139,373.976 198.483,377.96 194.592,380.726 C192.155,382.46 189.342,383.413 186.249,383.554 C183.655,383.679 181.389,383.21 179.967,382.804 L179.952,382.804 C179.952,382.804 179.671,382.71 179.655,382.523 C179.639,382.335 179.999,382.288 179.999,382.288 L180.03,382.288 C181.952,381.851 185.514,380.616 187.874,377.319 C189.671,374.788 190.546,370.163 188.702,366.226 C187.592,363.835 185.092,360.882 179.467,360.429 C176.967,360.226 174.702,360.741 172.702,361.944 C170.889,363.023 169.389,364.663 168.342,366.663 C165.889,371.366 166.342,377.101 169.467,380.944 C172.436,384.569 177.046,386.882 182.483,387.46 C183.342,387.554 184.186,387.585 185.03,387.585 C189.467,387.585 193.858,386.382 197.436,384.179 C201.092,381.601 203.217,377.616 203.889,371.991 C204.452,367.351 204.061,361.429 202.671,353.351 C202.311,351.257 201.764,348.226 201.108,344.476 C206.858,342.554 211.014,338.976 214.78,333.116 C218.077,327.382 219.014,321.273 217.592,314.96 M183.374,341.179 C178.733,339.96 174.296,337.46 170.546,333.944 C169.233,332.726 167.358,330.554 165.889,327.163 C164.53,323.991 163.858,320.554 163.921,316.976 C163.983,312.273 165.296,307.444 167.796,302.663 C170.717,297.085 175.28,291.554 181.342,286.226 C182.796,284.944 184.171,283.663 185.452,282.382 C186.217,286.648 187.046,291.335 187.921,296.21 C184.077,297.476 179.327,300.632 176.217,306.288 C172.671,312.851 172.811,318.382 173.546,321.866 C174.483,326.319 177.014,330.085 180.467,332.179 C181.405,332.741 185.53,334.866 187.374,334.288 C187.749,334.179 188.014,333.944 188.155,333.616 C188.671,332.444 187.639,331.804 186.092,330.851 C185.483,330.476 184.811,330.054 184.092,329.523 C180.764,327.038 179.311,322.585 180.389,318.194 C180.967,315.804 182.249,313.632 184.092,311.929 C185.749,310.382 187.796,309.288 190.171,308.648 C192.217,319.898 194.28,331.054 195.921,339.413 C196.046,340.101 196.186,340.773 196.311,341.444 C191.936,342.382 187.592,342.288 183.374,341.179 M194.702,307.976 C205.046,307.507 209.311,314.944 210.202,319.773 C210.671,322.319 210.671,326.757 209.124,330.976 C207.952,334.148 205.499,338.226 200.358,340.288 C200.296,339.866 200.217,339.429 200.139,339.007 C198.592,330.226 196.655,319.226 194.702,307.976 M187.374,237.023 C189.155,231.288 191.889,228.038 193.889,226.304 C195.639,224.788 197.28,224.069 198.202,224.069 C198.342,224.069 198.467,224.101 198.561,224.132 C199.03,224.273 199.561,224.835 200.03,225.71 C202.342,229.991 201.592,236.71 200.249,241.148 C198.624,246.554 195.702,252.163 186.905,261.773 C186.733,260.663 186.577,259.616 186.421,258.632 C185.171,250.351 185.499,243.069 187.374,237.023"/>
<path class="Clef" d="M217.592,789.99 C216.358,784.568 213.717,780.74 212.936,779.709 C209.749,775.427 205.733,772.584 201.046,771.224 C197.936,770.349 194.936,770.224 192.514,770.412 C191.467,764.396 190.467,758.521 189.561,753.068 C195.014,746.896 198.639,741.099 200.921,736.802 C204.389,730.224 205.53,725.646 205.592,725.443 C207.311,720.224 207.671,712.521 206.561,704.318 C205.561,696.771 203.467,690.052 201.108,686.802 C200.092,685.381 199.03,684.646 197.999,684.646 C196.78,684.646 194.264,685.881 191.374,688.662 C189.077,690.849 185.811,694.74 183.249,700.756 C180.249,707.818 180.03,717.302 180.389,724.021 C180.764,731.302 181.874,736.99 181.889,737.037 C181.905,737.131 182.171,738.631 182.608,741.193 C182.389,741.427 182.139,741.646 181.889,741.896 C180.858,742.896 179.671,744.021 178.28,745.412 C177.421,746.271 176.467,747.177 175.467,748.146 C167.03,756.287 154.233,768.615 154.233,787.771 C154.233,792.474 155.139,796.896 156.921,800.912 C158.499,804.506 160.796,807.787 163.733,810.662 C171.467,818.224 182.061,821.427 189.108,821.271 C192.061,821.193 194.702,820.959 197.092,820.506 C198.921,830.115 200.061,837.146 200.092,842.49 C200.139,849.006 198.483,852.99 194.592,855.756 C192.155,857.49 189.342,858.443 186.249,858.584 C183.655,858.709 181.389,858.24 179.967,857.834 L179.952,857.834 C179.952,857.834 179.671,857.74 179.655,857.552 C179.639,857.365 179.999,857.318 179.999,857.318 L180.03,857.318 C181.952,856.881 185.514,855.646 187.874,852.349 C189.671,849.818 190.546,845.193 188.702,841.256 C187.592,838.865 185.092,835.912 179.467,835.459 C176.967,835.256 174.702,835.771 172.702,836.974 C170.889,838.052 169.389,839.693 168.342,841.693 C165.889,846.396 166.342,852.131 169.467,855.974 C172.436,859.599 177.046,861.912 182.483,862.49 C183.342,862.584 184.186,862.615 185.03,862.615 C189.467,862.615 193.858,861.412 197.436,859.209 C201.092,856.631 203.217,852.646 203.889,847.021 C204.452,842.381 204.061,836.459 202.671,828.381 C202.311,826.287 201.764,823.256 201.108,819.506 C206.858,817.584 211.014,814.006 214.78,808.146 C218.077,802.412 219.014,796.302 217.592,789.99 M183.374,816.209 C178.733,814.99 174.296,812.49 170.546,808.974 C169.233,807.756 167.358,805.584 165.889,802.193 C164.53,799.021 163.858,795.584 163.921,792.006 C163.983,787.302 165.296,782.474 167.796,777.693 C170.717,772.115 175.28,766.584 181.342,761.256 C182.796,759.974 184.171,758.693 185.452,757.412 C186.217,761.677 187.046,766.365 187.921,771.24 C184.077,772.506 179.327,775.662 176.217,781.318 C172.671,787.881 172.811,793.412 173.546,796.896 C174.483,801.349 177.014,805.115 180.467,807.209 C181.405,807.771 185.53,809.896 187.374,809.318 C187.749,809.209 188.014,808.974 188.155,808.646 C188.671,807.474 187.639,806.834 186.092,805.881 C185.483,805.506 184.811,805.084 184.092,804.552 C180.764,802.068 179.311,797.615 180.389,793.224 C180.967,790.834 182.249,788.662 184.092,786.959 C185.749,785.412 187.796,784.318 190.171,783.677 C192.217,794.927 194.28,806.084 195.921,814.443 C196.046,815.131 196.186,815.802 196.311,816.474 C191.936,817.412 187.592,817.318 183.374,816.209 M194.702,783.006 C205.046,782.537 209.311,789.974 210.202,794.802 C210.671,797.349 210.671,801.787 209.124,806.006 C207.952,809.177 205.499,813.256 200.358,815.318 C200.296,814.896 200.217,814.459 200.139,814.037 C198.592,805.256 196.655,794.256 194.702,783.006 M187.374,712.052 C189.155,706.318 191.889,703.068 193.889,701.334 C195.639,699.818 197.28,699.099 198.202,699.099 C198.342,699.099 198.467,699.131 198.561,699.162 C199.03,699.302 199.561,699.865 200.03,700.74 C202.342,705.021 201.592,711.74 200.249,716.177 C198.624,721.584 195.702,727.193 186.905,736.802 C186.733,735.693 186.577,734.646 186.421,733.662 C185.171,725.381 185.499,718.099 187.374,712.052"/>
<path class="KeySig" d="M291.522,272.786 C292.131,272.676 292.631,271.973 292.631,271.38 L292.631,265.473 C292.631,264.676 292.022,264.083 291.225,264.083 L291.022,264.083 L287.725,264.786 L287.725,249.88 L284.928,249.88 L284.928,265.38 L276.022,267.176 L276.022,253.083 L273.225,253.083 L273.225,267.786 L269.318,268.583 C268.725,268.676 268.225,269.38 268.225,269.973 L268.225,270.176 L268.225,275.973 L268.225,275.786 C268.225,276.583 268.818,277.176 269.631,277.176 L269.928,277.176 L273.225,276.473 L273.225,292.973 L269.318,293.786 C268.725,293.88 268.225,294.583 268.225,295.176 L268.225,300.973 C268.225,301.786 268.818,302.38 269.631,302.38 L269.928,302.38 L273.225,301.676 L273.225,316.583 L276.022,316.583 L276.022,301.083 L284.928,299.286 L284.928,313.38 L287.725,313.38 L287.725,298.676 L291.522,297.973 C292.131,297.88 292.631,297.176 292.631,296.583 L292.631,290.676 C292.631,289.88 292.022,289.286 291.225,289.286 L291.022,289.286 L287.725,289.973 L287.725,273.473 L291.522,272.786 M276.022,292.473 L276.022,275.88 L284.928,274.083 L284.928,290.583 L276.022,292.473 "/>
<path class="KeySig" d="M266.52,235.283 C267.129,235.174 267.629,234.471 267.629,233.877 L267.629,227.971 C267.629,227.174 267.02,226.58 266.223,226.58 L266.02,226.58 L262.723,227.283 L262.723,212.377 L259.926,212.377 L259.926,227.877 L251.02,229.674 L251.02,215.58 L248.223,215.58 L248.223,230.283 L244.317,231.08 C243.723,231.174 243.223,231.877 243.223,232.471 L243.223,232.674 L243.223,238.471 L243.223,238.283 C243.223,239.08 243.817,239.674 244.629,239.674 L244.926,239.674 L248.223,238.971 L248.223,255.471 L244.317,256.283 C243.723,256.377 243.223,257.08 243.223,257.674 L243.223,263.471 C243.223,264.283 243.817,264.877 244.629,264.877 L244.926,264.877 L248.223,264.174 L248.223,279.08 L251.02,279.08 L251.02,263.58 L259.926,261.783 L259.926,275.877 L262.723,275.877 L262.723,261.174 L266.52,260.471 C267.129,260.377 267.629,259.674 267.629,259.08 L267.629,253.174 C267.629,252.377 267.02,251.783 266.223,251.783 L266.02,251.783 L262.723,252.471 L262.723,235.971 L266.52,235.283 M251.02,254.971 L251.02,238.377 L259.926,236.58 L259.926,253.08 L251.02,254.971 "/>
<path class="KeySig" d="M291.522,747.816 C292.131,747.706 292.631,747.003 292.631,746.409 L292.631,740.503 C292.631,739.706 292.022,739.113 291.225,739.113 L291.022,739.113 L287.725,739.816 L287.725,724.909 L284.928,724.909 L284.928,740.409 L276.022,742.206 L276.022,728.113 L273.225,728.113 L273.225,742.816 L269.318,743.613 C268.725,743.706 268.225,744.409 268.225,745.003 L268.225,745.206 L268.225,751.003 L268.225,750.816 C268.225,751.613 268.818,752.206 269.631,752.206 L269.928,752.206 L273.225,751.503 L273.225,768.003 L269.318,768.816 C268.725,768.909 268.225,769.613 268.225,770.206 L268.225,776.003 C268.225,776.816 268.818,777.409 269.631,777.409 L269.928,777.409 L273.225,776.706 L273.225,791.613 L276.022,791.613 L276.022,776.113 L284.928,774.316 L284.928,788.409 L287.725,788.409 L287.725,773.706 L291.522,773.003 C292.131,772.909 292.631,772.206 292.631,771.613 L292.631,765.706 C292.631,764.909 292.022,764.316 291.225,764.316 L291.022,764.316 L287.725,765.003 L287.725,748.503 L291.522,747.816 M276.022,767.503 L276.022,750.909 L284.928,749.113 L284.928,765.613 L276.022,767.503 "/>
<path class="KeySig" d="M266.52,710.313 C267.129,710.204 267.629,709.501 267.629,708.907 L267.629,703.001 C267.629,702.204 267.02,701.61 266.223,701.61 L266.02,701.61 L262.723,702.313 L262.723,687.407 L259.926,687.407 L259.926,702.907 L251.02,704.704 L251.02,690.61 L248.223,690.61 L248.223,705.313 L244.317,706.11 C243.723,706.204 243.223,706.907 243.223,707.501 L243.223,707.704 L243.223,713.501 L243.223,713.313 C243.223,714.11 243.817,714.704 244.629,714.704 L244.926,714.704 L248.223,714.001 L248.223,730.501 L244.317,731.313 C243.723,731.407 243.223,732.11 243.223,732.704 L243.223,738.501 C243.223,739.313 243.817,739.907 244.629,739.907 L244.926,739.907 L248.223,739.204 L248.223,754.11 L251.02,754.11 L251.02,738.61 L259.926,736.813 L259.926,750.907 L262.723,750.907 L262.723,736.204 L266.52,735.501 C267.129,735.407 267.629,734.704 267.629,734.11 L267.629,728.204 C267.629,727.407 267.02,726.813 266.223,726.813 L266.02,726.813 L262.723,727.501 L262.723,711.001 L266.52,710.313 M251.02,730.001 L251.02,713.407 L259.926,711.61 L259.926,728.11 L251.02,730.001 "/>
<path class="Rest" d="M1541.92,275.615 C1541.17,275.333 1540.5,275.677 1540.17,276.287 C1539.84,276.896 1536.65,282.818 1532.23,286.083 C1530.84,287.099 1529.25,287.74 1527.68,288.068 C1528.81,286.818 1529.48,285.146 1529.48,283.333 C1529.48,279.38 1526.28,276.177 1522.34,276.177 C1518.39,276.177 1515.18,279.38 1515.18,283.333 C1515.18,286.333 1517.06,288.927 1519.7,289.974 C1521.23,290.693 1523.14,291.146 1525.18,291.146 C1528.03,291.146 1531.14,290.318 1533.85,288.318 C1535.12,287.396 1536.31,286.193 1537.39,284.943 L1526,320.568 L1528.64,321.427 L1542.71,277.333 C1542.95,276.599 1542.65,275.912 1541.92,275.615"/>
<path class="Rest" d="M2782.73,312.787 L2782.53,312.474 C2782.43,312.38 2782.23,312.177 2781.93,311.787 L2770.43,297.583 C2770.12,297.287 2770.23,296.474 2770.43,296.083 L2780.62,280.677 C2780.73,280.474 2780.82,280.177 2780.82,279.974 L2780.82,279.083 C2780.82,278.787 2780.73,278.474 2780.53,278.287 L2764.32,256.38 C2764.32,256.38 2763.53,255.177 2762.53,256.083 C2761.53,256.88 2762.32,258.177 2762.32,258.177 L2769.93,268.583 C2770.32,269.177 2770.32,270.38 2769.93,270.974 L2759.82,286.38 C2759.73,286.583 2759.62,286.974 2759.62,287.177 L2759.62,288.083 C2759.62,288.38 2759.73,288.677 2759.93,288.88 L2771.12,302.787 C2770.73,302.677 2769.82,302.474 2768.62,302.474 C2766.93,302.474 2764.73,302.88 2762.93,304.474 C2760.73,306.474 2759.53,309.287 2759.53,311.787 C2759.53,313.177 2759.82,314.583 2760.62,315.677 C2762.73,318.88 2770.23,328.38 2770.23,328.38 C2770.23,328.38 2771.12,329.49 2772.03,328.787 C2772.93,328.083 2772.73,327.177 2772.43,326.677 C2772.12,326.177 2768.93,320.38 2768.93,320.38 C2768.93,320.38 2768.23,318.974 2768.23,317.177 C2768.23,315.88 2768.62,314.287 2769.93,312.974 C2771.12,311.787 2772.53,311.38 2773.82,311.38 C2775.12,311.38 2776.23,311.787 2777.03,312.287 L2780.93,314.787 C2780.93,314.787 2782.12,315.38 2782.73,314.474 C2783.23,313.677 2783.03,313.287 2782.73,312.787"/>
<path class="Rest" d="M603.051,787.816 L602.848,787.504 C602.754,787.41 602.551,787.207 602.254,786.816 L590.754,772.613 C590.442,772.316 590.551,771.504 590.754,771.113 L600.942,755.707 C601.051,755.504 601.145,755.207 601.145,755.004 L601.145,754.113 C601.145,753.816 601.051,753.504 600.848,753.316 L584.645,731.41 C584.645,731.41 583.848,730.207 582.848,731.113 C581.848,731.91 582.645,733.207 582.645,733.207 L590.254,743.613 C590.645,744.207 590.645,745.41 590.254,746.004 L580.145,761.41 C580.051,761.613 579.942,762.004 579.942,762.207 L579.942,763.113 C579.942,763.41 580.051,763.707 580.254,763.91 L591.442,777.816 C591.051,777.707 590.145,777.504 588.942,777.504 C587.254,777.504 585.051,777.91 583.254,779.504 C581.051,781.504 579.848,784.316 579.848,786.816 C579.848,788.207 580.145,789.613 580.942,790.707 C583.051,793.91 590.551,803.41 590.551,803.41 C590.551,803.41 591.442,804.52 592.348,803.816 C593.254,803.113 593.051,802.207 592.754,801.707 C592.442,801.207 589.254,795.41 589.254,795.41 C589.254,795.41 588.551,794.004 588.551,792.207 C588.551,790.91 588.942,789.316 590.254,788.004 C591.442,786.816 592.848,786.41 594.145,786.41 C595.442,786.41 596.551,786.816 597.348,787.316 L601.254,789.816 C601.254,789.816 602.442,790.41 603.051,789.504 C603.551,788.707 603.348,788.316 603.051,787.816"/>
<path class="Rest" d="M922.766,787.816 L922.563,787.504 C922.469,787.41 922.266,787.207 921.969,786.816 L910.469,772.613 C910.156,772.316 910.266,771.504 910.469,771.113 L920.656,755.707 C920.766,755.504 920.86,755.207 920.86,755.004 L920.86,754.113 C920.86,753.816 920.766,753.504 920.563,753.316 L904.36,731.41 C904.36,731.41 903.563,730.207 902.563,731.113 C901.563,731.91 902.36,733.207 902.36,733.207 L909.969,743.613 C910.36,744.207 910.36,745.41 909.969,746.004 L899.86,761.41 C899.766,761.613 899.656,762.004 899.656,762.207 L899.656,763.113 C899.656,763.41 899.766,763.707 899.969,763.91 L911.156,777.816 C910.766,777.707 909.86,777.504 908.656,777.504 C906.969,777.504 904.766,777.91 902.969,779.504 C900.766,781.504 899.563,784.316 899.563,786.816 C899.563,788.207 899.86,789.613 900.656,790.707 C902.766,793.91 910.266,803.41 910.266,803.41 C910.266,803.41 911.156,804.52 912.063,803.816 C912.969,803.113 912.766,802.207 912.469,801.707 C912.156,801.207 908.969,795.41 908.969,795.41 C908.969,795.41 908.266,794.004 908.266,792.207 C908.266,790.91 908.656,789.316 909.969,788.004 C911.156,786.816 912.563,786.41 913.86,786.41 C915.156,786.41 916.266,786.816 917.063,787.316 L920.969,789.816 C920.969,789.816 922.156,790.41 922.766,789.504 C923.266,788.707 923.063,788.316 922.766,787.816"/>
<path class="Rest" d="M1224.45,787.816 L1224.25,787.504 C1224.16,787.41 1223.95,787.207 1223.66,786.816 L1212.16,772.613 C1211.84,772.316 1211.95,771.504 1212.16,771.113 L1222.34,755.707 C1222.45,755.504 1222.55,755.207 1222.55,755.004 L1222.55,754.113 C1222.55,753.816 1222.45,753.504 1222.25,753.316 L1206.05,731.41 C1206.05,731.41 1205.25,730.207 1204.25,731.113 C1203.25,731.91 1204.05,733.207 1204.05,733.207 L1211.66,743.613 C1212.05,744.207 1212.05,745.41 1211.66,746.004 L1201.55,761.41 C1201.45,761.613 1201.34,762.004 1201.34,762.207 L1201.34,763.113 C1201.34,763.41 1201.45,763.707 1201.66,763.91 L1212.84,777.816 C1212.45,777.707 1211.55,777.504 1210.34,777.504 C1208.66,777.504 1206.45,777.91 1204.66,779.504 C1202.45,781.504 1201.25,784.316 1201.25,786.816 C1201.25,788.207 1201.55,789.613 1202.34,790.707 C1204.45,793.91 1211.95,803.41 1211.95,803.41 C1211.95,803.41 1212.84,804.52 1213.75,803.816 C1214.66,803.113 1214.45,802.207 1214.16,801.707 C1213.84,801.207 1210.66,795.41 1210.66,795.41 C1210.66,795.41 1209.95,794.004 1209.95,792.207 C1209.95,790.91 1210.34,789.316 1211.66,788.004 C1212.84,786.816 1214.25,786.41 1215.55,786.41 C1216.84,786.41 1217.95,786.816 1218.75,787.316 L1222.66,789.816 C1222.66,789.816 1223.84,790.41 1224.45,789.504 C1224.95,788.707 1224.75,788.316 1224.45,787.816"/>
<path class="Rest" d="M1581.69,750.645 C1580.94,750.363 1580.26,750.707 1579.94,751.316 C1579.61,751.926 1576.42,757.848 1572,761.113 C1570.61,762.129 1569.01,762.77 1567.45,763.098 C1568.58,761.848 1569.25,760.176 1569.25,758.363 C1569.25,754.41 1566.04,751.207 1562.11,751.207 C1558.15,751.207 1554.95,754.41 1554.95,758.363 C1554.95,761.363 1556.83,763.957 1559.47,765.004 C1561,765.723 1562.9,766.176 1564.95,766.176 C1567.79,766.176 1570.9,765.348 1573.62,763.348 C1574.89,762.426 1576.08,761.223 1577.15,759.973 L1565.76,795.598 L1568.4,796.457 L1582.48,752.363 C1582.72,751.629 1582.42,750.941 1581.69,750.645"/>
<path class="Rest" d="M1961.38,787.816 L1961.18,787.504 C1961.08,787.41 1960.88,787.207 1960.58,786.816 L1949.08,772.613 C1948.77,772.316 1948.88,771.504 1949.08,771.113 L1959.27,755.707 C1959.38,755.504 1959.47,755.207 1959.47,755.004 L1959.47,754.113 C1959.47,753.816 1959.38,753.504 1959.18,753.316 L1942.97,731.41 C1942.97,731.41 1942.18,730.207 1941.18,731.113 C1940.18,731.91 1940.97,733.207 1940.97,733.207 L1948.58,743.613 C1948.97,744.207 1948.97,745.41 1948.58,746.004 L1938.47,761.41 C1938.38,761.613 1938.27,762.004 1938.27,762.207 L1938.27,763.113 C1938.27,763.41 1938.38,763.707 1938.58,763.91 L1949.77,777.816 C1949.38,777.707 1948.47,777.504 1947.27,777.504 C1945.58,777.504 1943.38,777.91 1941.58,779.504 C1939.38,781.504 1938.18,784.316 1938.18,786.816 C1938.18,788.207 1938.47,789.613 1939.27,790.707 C1941.38,793.91 1948.88,803.41 1948.88,803.41 C1948.88,803.41 1949.77,804.52 1950.68,803.816 C1951.58,803.113 1951.38,802.207 1951.08,801.707 C1950.77,801.207 1947.58,795.41 1947.58,795.41 C1947.58,795.41 1946.88,794.004 1946.88,792.207 C1946.88,790.91 1947.27,789.316 1948.58,788.004 C1949.77,786.816 1951.18,786.41 1952.47,786.41 C1953.77,786.41 1954.88,786.816 1955.68,787.316 L1959.58,789.816 C1959.58,789.816 1960.77,790.41 1961.38,789.504 C1961.88,788.707 1961.68,788.316 1961.38,787.816"/>
<path class="Rest" d="M2223.75,787.816 L2223.55,787.504 C2223.46,787.41 2223.25,787.207 2222.96,786.816 L2211.46,772.613 C2211.15,772.316 2211.25,771.504 2211.46,771.113 L2221.65,755.707 C2221.75,755.504 2221.85,755.207 2221.85,755.004 L2221.85,754.113 C2221.85,753.816 2221.75,753.504 2221.55,753.316 L2205.35,731.41 C2205.35,731.41 2204.55,730.207 2203.55,731.113 C2202.55,731.91 2203.35,733.207 2203.35,733.207 L2210.96,743.613 C2211.35,744.207 2211.35,745.41 2210.96,746.004 L2200.85,761.41 C2200.75,761.613 2200.65,762.004 2200.65,762.207 L2200.65,763.113 C2200.65,763.41 2200.75,763.707 2200.96,763.91 L2212.15,777.816 C2211.75,777.707 2210.85,777.504 2209.65,777.504 C2207.96,777.504 2205.75,777.91 2203.96,779.504 C2201.75,781.504 2200.55,784.316 2200.55,786.816 C2200.55,788.207 2200.85,789.613 2201.65,790.707 C2203.75,793.91 2211.25,803.41 2211.25,803.41 C2211.25,803.41 2212.15,804.52 2213.05,803.816 C2213.96,803.113 2213.75,802.207 2213.46,801.707 C2213.15,801.207 2209.96,795.41 2209.96,795.41 C2209.96,795.41 2209.25,794.004 2209.25,792.207 C2209.25,790.91 2209.65,789.316 2210.96,788.004 C2212.15,786.816 2213.55,786.41 2214.85,786.41 C2216.15,786.41 2217.25,786.816 2218.05,787.316 L2221.96,789.816 C2221.96,789.816 2223.15,790.41 2223.75,789.504 C2224.25,788.707 2224.05,788.316 2223.75,787.816"/>
<path class="Rest" d="M2315.75,787.816 L2315.55,787.504 C2315.46,787.41 2315.25,787.207 2314.96,786.816 L2303.46,772.613 C2303.14,772.316 2303.25,771.504 2303.46,771.113 L2313.64,755.707 C2313.75,755.504 2313.85,755.207 2313.85,755.004 L2313.85,754.113 C2313.85,753.816 2313.75,753.504 2313.55,753.316 L2297.35,731.41 C2297.35,731.41 2296.55,730.207 2295.55,731.113 C2294.55,731.91 2295.35,733.207 2295.35,733.207 L2302.96,743.613 C2303.35,744.207 2303.35,745.41 2302.96,746.004 L2292.85,761.41 C2292.75,761.613 2292.64,762.004 2292.64,762.207 L2292.64,763.113 C2292.64,763.41 2292.75,763.707 2292.96,763.91 L2304.14,777.816 C2303.75,777.707 2302.85,777.504 2301.64,777.504 C2299.96,777.504 2297.75,777.91 2295.96,779.504 C2293.75,781.504 2292.55,784.316 2292.55,786.816 C2292.55,788.207 2292.85,789.613 2293.64,790.707 C2295.75,793.91 2303.25,803.41 2303.25,803.41 C2303.25,803.41 2304.14,804.52 2305.05,803.816 C2305.96,803.113 2305.75,802.207 2305.46,801.707 C2305.14,801.207 2301.96,795.41 2301.96,795.41 C2301.96,795.41 2301.25,794.004 2301.25,792.207 C2301.25,790.91 2301.64,789.316 2302.96,788.004 C2304.14,786.816 2305.55,786.41 2306.85,786.41 C2308.14,786.41 2309.25,786.816 2310.05,787.316 L2313.96,789.816 C2313.96,789.816 2315.14,790.41 2315.75,789.504 C2316.25,788.707 2316.05,788.316 2315.75,787.816"/>
<path class="Rest" d="M2711.49,787.816 L2711.29,787.504 C2711.2,787.41 2710.99,787.207 2710.7,786.816 L2699.2,772.613 C2698.88,772.316 2698.99,771.504 2699.2,771.113 L2709.38,755.707 C2709.49,755.504 2709.59,755.207 2709.59,755.004 L2709.59,754.113 C2709.59,753.816 2709.49,753.504 2709.29,753.316 L2693.09,731.41 C2693.09,731.41 2692.29,730.207 2691.29,731.113 C2690.29,731.91 2691.09,733.207 2691.09,733.207 L2698.7,743.613 C2699.09,744.207 2699.09,745.41 2698.7,746.004 L2688.59,761.41 C2688.49,761.613 2688.38,762.004 2688.38,762.207 L2688.38,763.113 C2688.38,763.41 2688.49,763.707 2688.7,763.91 L2699.88,777.816 C2699.49,777.707 2698.59,777.504 2697.38,777.504 C2695.7,777.504 2693.49,777.91 2691.7,779.504 C2689.49,781.504 2688.29,784.316 2688.29,786.816 C2688.29,788.207 2688.59,789.613 2689.38,790.707 C2691.49,793.91 2698.99,803.41 2698.99,803.41 C2698.99,803.41 2699.88,804.52 2700.79,803.816 C2701.7,803.113 2701.49,802.207 2701.2,801.707 C2700.88,801.207 2697.7,795.41 2697.7,795.41 C2697.7,795.41 2696.99,794.004 2696.99,792.207 C2696.99,790.91 2697.38,789.316 2698.7,788.004 C2699.88,786.816 2701.29,786.41 2702.59,786.41 C2703.88,786.41 2704.99,786.816 2705.79,787.316 L2709.7,789.816 C2709.7,789.816 2710.88,790.41 2711.49,789.504 C2711.99,788.707 2711.79,788.316 2711.49,787.816"/>
<path class="Rest" d="M2734.67,759.113 L2734.67,769.91 C2734.67,771.316 2734.67,771.316 2736.07,771.316 L2765.78,771.316 C2767.17,771.316 2767.17,771.316 2767.17,769.91 L2767.17,759.113 C2767.17,757.707 2767.17,757.707 2765.78,757.707 L2736.07,757.707 C2734.67,757.707 2734.67,757.707 2734.67,759.113"/>
<path class="Beam" fill-rule="evenodd" d="M355.129,358.613 L504.621,371.348 L504.621,383.392 L355.129,370.657 L355.129,358.613 "/>
<path class="Beam" fill-rule="evenodd" d="M945.561,371.07 L990.806,364.416 L990.806,376.545 L945.561,383.2 L945.561,371.07 "/>
<path class="Beam" fill-rule="evenodd" d="M1080.05,364.88 L1238.77,358.519 L1238.77,370.53 L1080.05,376.89 L1080.05,364.88 "/>
<path class="Beam" fill-rule="evenodd" d="M1400.94,221.413 L1455.68,214.832 L1455.68,226.919 L1400.94,233.5 L1400.94,221.413 "/>
<path class="Beam" fill-rule="evenodd" d="M1573.83,364.885 L1693.87,364.885 L1693.87,376.885 L1573.83,376.885 L1573.83,364.885 "/>
<path class="Beam" fill-rule="evenodd" d="M1749.76,346.081 L1940.39,371.448 L1940.39,383.555 L1749.76,358.187 L1749.76,346.081 "/>
<path class="Beam" fill-rule="evenodd" d="M2073.43,221.469 L2244,196.058 L2244,208.191 L2073.43,233.602 L2073.43,221.469 "/>
<path class="Beam" fill-rule="evenodd" d="M2297.19,214.875 L2467.75,214.875 L2467.75,226.876 L2297.19,226.876 L2297.19,214.875 "/>
<path class="Beam" fill-rule="evenodd" d="M2699.94,214.432 L2747.35,221.067 L2747.35,233.185 L2699.94,226.55 L2699.94,214.432 "/>
<path class="Beam" fill-rule="evenodd" d="M505.859,696.495 L551.104,689.841 L551.104,701.97 L505.859,708.625 L505.859,696.495 "/>
<path class="Beam" fill-rule="evenodd" d="M505.859,714.497 L537.111,709.9 L537.111,722.03 L505.859,726.626 L505.859,714.497 "/>
<path class="Beam" fill-rule="evenodd" d="M825.574,689.436 L870.819,696.091 L870.819,708.221 L825.574,701.566 L825.574,689.436 "/>
<path class="Beam" fill-rule="evenodd" d="M825.574,707.437 L856.826,712.034 L856.826,724.164 L825.574,719.567 L825.574,707.437 "/>
<path class="Beam" fill-rule="evenodd" d="M994.558,870.205 L1039.8,843.585 L1039.8,857.509 L994.558,884.129 L994.558,870.205 "/>
<path class="Beam" fill-rule="evenodd" d="M1369.61,814.913 L1418.7,814.913 L1418.7,826.914 L1369.61,826.914 L1369.61,814.913 "/>
<path class="Beam" fill-rule="evenodd" d="M1462.28,833.61 L1511.37,840.231 L1511.37,852.341 L1462.28,845.719 L1462.28,833.61 "/>
<path class="Beam" fill-rule="evenodd" d="M1763.25,795.25 L1809.73,821.824 L1809.73,835.648 L1763.25,809.074 L1763.25,795.25 "/>
<path class="Beam" fill-rule="evenodd" d="M1880.46,689.451 L1926.94,696.095 L1926.94,708.217 L1880.46,701.574 L1880.46,689.451 "/>
<path class="Beam" fill-rule="evenodd" d="M2356.36,870.205 L2401.61,843.585 L2401.61,857.509 L2356.36,884.129 L2356.36,870.205 "/>
<path class="Beam" fill-rule="evenodd" d="M2507.42,833.41 L2552.66,846.72 L2552.66,859.229 L2507.42,845.919 L2507.42,833.41 "/>
<path class="Hook" d="M1603.79,808.819 C1603.79,808.616 1604.69,805.209 1604.79,804.913 C1604.88,804.506 1606.69,798.819 1610.38,793.116 C1613.08,788.913 1622.58,776.616 1622.29,776.616 C1622.29,776.616 1629.69,767.116 1630.19,754.209 L1630.19,751.913 C1630.19,745.803 1629.4,737.209 1625.88,728.506 C1625.49,727.506 1625.08,726.506 1623.99,726.913 C1622.88,727.303 1623.19,728.506 1623.49,729.6 C1625.29,736.616 1626.29,743.803 1626.29,751.006 C1626.29,759.413 1623.29,763.616 1621.49,766.709 C1614.88,777.803 1606.29,783.209 1602.08,784.616 C1601.58,784.819 1601.29,785.209 1601.29,785.709 L1601.29,791.913 L1601.29,808.319 C1601.29,809.006 1601.88,809.616 1602.58,809.616 C1603.08,809.616 1603.69,809.209 1603.79,808.819"/>
<path class="NoteDot" d="M559.855,758.409 C559.855,761.175 562.089,763.409 564.855,763.409 C567.62,763.409 569.855,761.175 569.855,758.409 C569.855,755.644 567.62,753.409 564.855,753.409 C562.089,753.409 559.855,755.644 559.855,758.409"/>
<path class="NoteDot" d="M879.569,783.411 C879.569,786.177 881.804,788.411 884.569,788.411 C887.335,788.411 889.569,786.177 889.569,783.411 C889.569,780.645 887.335,778.411 884.569,778.411 C881.804,778.411 879.569,780.645 879.569,783.411"/>
<path class="Page" d="M141.953,4189.38 C142.089,4188.76 142.224,4188.23 142.359,4187.78 C142.495,4187.34 142.781,4186.68 143.219,4185.82 C143.656,4184.95 144.148,4184.24 144.695,4183.67 C145.242,4183.1 146.003,4182.59 146.977,4182.14 C147.951,4181.68 149.052,4181.46 150.281,4181.46 C152.354,4181.46 154.104,4182.13 155.531,4183.49 C156.958,4184.84 157.672,4186.51 157.672,4188.5 C157.672,4191.51 155.969,4194.81 152.563,4198.38 L145.844,4205.41 L155.391,4205.41 C156.297,4205.41 156.971,4205.26 157.414,4204.96 C157.857,4204.65 158.453,4203.93 159.203,4202.78 L159.719,4202.97 L157.516,4208.46 L141.922,4208.46 L141.922,4207.97 L149.031,4200.43 C152.5,4196.74 154.234,4193.27 154.234,4190.02 C154.234,4188.34 153.714,4186.98 152.672,4185.94 C151.63,4184.9 150.271,4184.38 148.594,4184.38 C147.208,4184.38 146.096,4184.76 145.258,4185.52 C144.419,4186.28 143.599,4187.63 142.797,4189.58 L141.953,4189.38 "/>
</svg>
