<?xml version="1.0" encoding="UTF-8" standalone="no"?>
<svg
   xmlns:dc="http://purl.org/dc/elements/1.1/"
   xmlns:cc="http://creativecommons.org/ns#"
   xmlns:rdf="http://www.w3.org/1999/02/22-rdf-syntax-ns#"
   xmlns:svg="http://www.w3.org/2000/svg"
   xmlns="http://www.w3.org/2000/svg"
   xmlns:sodipodi="http://sodipodi.sourceforge.net/DTD/sodipodi-0.dtd"
   xmlns:inkscape="http://www.inkscape.org/namespaces/inkscape"
   sodipodi:docname="mscz_dark.svg"
   inkscape:version="1.0 (4035a4fb49, 2020-05-01)"
   id="svg8"
   version="1.1"
   viewBox="0 0 63.161743 103.38385"
   height="103.38387mm"
   width="63.161743mm">
  <defs
     id="defs2" />
  <sodipodi:namedview
     fit-margin-bottom="0"
     fit-margin-right="0"
     fit-margin-left="0"
     fit-margin-top="0"
     inkscape:window-maximized="1"
     inkscape:window-y="-11"
     inkscape:window-x="-11"
     inkscape:window-height="986"
     inkscape:window-width="1920"
     showgrid="false"
     inkscape:document-rotation="0"
     inkscape:current-layer="layer1"
     inkscape:document-units="mm"
     inkscape:cy="196.55169"
     inkscape:cx="273.0524"
     inkscape:zoom="1.4"
     inkscape:pageshadow="2"
     inkscape:pageopacity="0.0"
     borderopacity="1.0"
     bordercolor="#666666"
     pagecolor="#ffffff"
     id="base" />
  <metadata
     id="metadata5">
    <rdf:RDF>
      <cc:Work
         rdf:about="">
        <dc:format>image/svg+xml</dc:format>
        <dc:type
           rdf:resource="http://purl.org/dc/dcmitype/StillImage" />
        <dc:title />
      </cc:Work>
    </rdf:RDF>
  </metadata>
  <g
     transform="translate(-42.559576,-0.13412738)"
     id="layer1"
     inkscape:groupmode="layer"
     inkscape:label="Layer 1">
    <path
       transform="matrix(0.26458333,0,0,0.26458333,42.55952,0.46433978)"
       d="m 148.36328,-1.2480469 c -0.0517,0.02084 -0.0476,0.1757024 -0.004,0.41796878 z m -0.004,0.41796878 L 148.35156,0 h -10.9082 v 274.45312 c -18.09446,-12.85983 -54.746691,-12.61477 -84.019532,0.28126 -40.0777,17.65606 -62.4477833,54.93824 -49.9648436,83.27343 12.4829406,28.33519 58.6273676,41.03302 98.7050756,23.37696 22.06147,-9.71909 45.45126,-27.44484 46.38477,-46.16993 h 0.006 v -0.14257 c 0.013,-0.29806 0.0375,-0.59601 0.0391,-0.89454 0.0893,-17.40945 0.48471,-27.30047 0,-40.10742 -0.008,-0.20116 -0.027,-0.39664 -0.0391,-0.5957 V 68.542969 c 6.60201,36.698461 34.25038,40.342111 53.38867,76.166011 11.99758,22.3093 -8.28125,49.91211 -8.28125,49.91211 C 248.19001,165.50557 222.32952,100.08893 187.5353,63.789062 163.73394,38.779213 149.10832,3.3233397 148.35938,-0.83007812 Z"
       style="fill:#ebebeb;fill-opacity:1;stroke-width:6.80315"
       id="path833" />
    <path
       sodipodi:nodetypes="cccssccc"
       id="rect842-5"
       style="fill:#ebebeb;fill-opacity:1;stroke:#ebebeb;stroke-width:1.84865;stroke-linecap:round;stroke-linejoin:round;stroke-miterlimit:4;stroke-dasharray:none;stroke-opacity:1"
       d="m 88.8188,91.43192 0.561766,-9.307671 7.447096,-11.837409 c 0.668979,-1.063487 1.975503,-1.436686 2.929429,-0.836788 l 4.148799,2.609063 c 0.95392,0.599896 1.18332,1.938997 0.51432,3.002474 l -7.447088,11.837415 z" />
  </g>
</svg>
